<svg width="80" height="78" viewBox="0 0 80 78" fill="none" xmlns="http://www.w3.org/2000/svg">
<rect width="78.9952" height="76.8537" transform="translate(0.493591 0.362305)" fill="#AFECE8"/>
<path d="M61.1089 48.5286C66.5898 45.2357 84.6428 33.6988 73.242 28.6425C69.5043 26.9954 65.106 26.4033 61.098 25.8916C58.4853 25.5538 54.9687 24.8929 52.3322 25.8731C51.764 21.1918 48.5183 16.8365 46.4804 12.6812C45.2616 10.202 42.5293 4.76468 39.1767 4.63707C35.8753 4.51054 34.2464 7.08953 32.5248 9.63044C29.4885 14.1157 26.412 18.6543 23.5219 23.2179C23.0018 24.0409 23.8693 25.1128 24.7471 24.49C29.8212 20.8935 32.56 14.2826 36.3152 9.42705C39.8505 4.85895 43.3989 13.309 44.6352 15.8187C46.459 19.5299 48.1934 23.1911 49.8745 26.9535C50.2437 27.7741 51.1212 27.91 51.7399 27.5767C51.8238 27.5996 51.911 27.6104 52.0135 27.6126C57.187 27.4382 63.0696 29.1544 68.0168 30.4746C69.3152 30.8149 70.5963 31.2663 71.8305 31.795C75.2913 33.2767 70.7502 36.9024 69.3617 38.0293C65.7517 40.931 61.2484 43.1395 58.4501 46.8922C58.0071 47.4789 58.0764 48.0765 58.3809 48.5194C58.368 48.7088 58.4031 48.9113 58.4981 49.13C60.9754 54.5108 63.6121 60.205 64.5597 66.0956C65.4711 71.8349 57.7903 67.0704 55.5656 65.7321C51.0596 63.0273 46.4969 60.4357 41.9941 57.7189C41.6844 57.5317 41.3618 57.534 41.0763 57.6364C40.6717 57.372 40.118 57.3242 39.5385 57.6553C35.2459 60.1783 30.9522 62.7525 26.7119 65.367C24.3614 66.8109 17.1473 70.8411 17.3367 65.2213C17.5273 59.6918 21.8444 55.5165 23.3576 50.4754C23.3999 50.3197 23.4118 50.1815 23.4149 50.028C23.8972 49.5805 24.0403 48.7707 23.4206 48.1134C19.8159 44.3678 16.4092 40.3674 12.54 36.8842C11.2167 35.6883 4.41032 31.2131 7.26655 29.8039C12.2481 27.3525 18.4282 28.9695 23.3424 26.7184C24.4622 26.2 24.4277 24.3388 23.0499 24.1954C19.5936 23.8338 15.88 24.5597 12.4572 25.0688C9.42454 25.5169 4.91848 26.0786 2.99432 28.7959C0.92432 31.7179 4.67889 34.9127 6.61516 36.6483C11.1357 40.7203 15.5785 45.5041 20.5029 49.1329C16.7485 53.6543 11.7824 62.7714 14.2514 68.5615C15.8081 72.2129 20.2961 72.0964 23.4404 71.0485C25.9594 70.2163 28.2758 68.5188 30.4988 67.1174C34.0104 64.9091 37.7074 62.9185 40.8173 60.1508C44.9699 64.6756 50.9155 67.1548 56.1685 70.1914C59.2939 72.0062 64.0968 74.0459 67.1204 71.0747C69.4211 68.8199 67.5708 63.7383 66.801 61.2655C65.4103 56.8619 63.332 52.6185 61.1089 48.5286Z" fill="white"/>
<path d="M39.3838 15.5217C36.4646 16.0264 29.9278 28.2657 29.9278 28.2657C29.9278 28.2657 13.3701 30.9654 13.0843 32.8681C12.7985 34.7708 26.4509 47.4846 26.6021 48.3488C26.7567 49.201 19.9727 62.6333 22.3029 63.8203C24.6332 65.0072 36.868 54.0737 39.7187 53.679C42.5574 53.281 58.4963 65.7063 60.3425 64.6011C62.1887 63.4958 54.7845 49.8558 55.2728 46.5936C55.773 43.3346 68.6309 37.4961 68.1826 34.9307C67.7343 32.3653 50.1552 30.7979 48.0985 29.6468C46.0538 28.499 42.8142 14.9374 39.3838 15.5217Z" fill="#FFDF39"/>
</svg>
