<svg xmlns="http://www.w3.org/2000/svg" viewBox="0 0 500 500"><g id="freepik--Window--inject-119"><g id="freepik--window--inject-119"><g id="freepik--window--inject-119"><polygon points="459.61 248.9 456.15 249.13 339.4 181.71 341.13 180.45 459.61 248.9" style="fill:#fafafa"></polygon><polygon points="341.13 180.45 456.15 246.9 456.15 99.32 341.13 32.88 341.13 180.45" style="fill:#fafafa"></polygon><path d="M335.94,183.7,459.6,255.12V97.32L335.94,25.91ZM339.4,31.9,456.15,99.32V249.13L339.4,181.71Z" style="fill:#f0f0f0"></path><polygon points="339.4 181.71 341.13 180.45 341.13 32.88 339.4 31.9 339.4 181.71" style="fill:#e0e0e0"></polygon><polygon points="335.94 25.91 339.64 23.73 463.31 95.15 459.61 97.32 335.94 25.91" style="fill:#fafafa"></polygon><polygon points="463.31 95.15 459.61 97.32 459.61 255.12 463.3 252.94 463.31 95.15" style="fill:#e0e0e0"></polygon><polygon points="456.15 175.43 341.13 108.95 339.4 109.99 456.15 177.41 456.15 175.43" style="fill:#fafafa"></polygon><polygon points="339.4 109.99 339.4 113.86 456.15 181.28 456.15 177.41 339.4 109.99" style="fill:#f0f0f0"></polygon></g><g id="freepik--Blinds--inject-119"><path d="M341.13,80.94l-.91,4,115.93,67v-4.61Zm0-6.45-.91,4.05,115.93,67v-4.61Zm0,12.9-.91,4,115.93,67v-4.61Zm0,6.45-.91,4,115.93,67v-4.61Zm-.91-54,115.93,67v-4.61l-115-66.43Zm.91,8.85-.91,4,115.93,67v-4.62Zm0,19.35-.91,4.06,115.93,67v-4.61Zm0-12.9-.91,4,115.93,67v-4.61Zm0-12.9-.91,4.05,115.93,67v-4.61Zm0,19.35-.91,4,115.93,67V128Z" style="fill:#ebebeb"></path><path d="M340.77,37.39l115.38,66.67v-1.85l-115-66.43Zm.36,4.84-.36,1.61,115.38,66.68v-1.86Zm0,6.45-.36,1.61L456.15,117v-1.86Zm0,6.45-.36,1.61,115.38,66.68v-1.85Zm0,6.45-.36,1.61,115.38,66.68V128Zm0,6.45-.36,1.61,115.38,66.68v-1.85Zm0,6.46-.36,1.6,115.38,66.68v-1.85Zm0,6.45-.36,1.61,115.38,66.67v-1.85Zm0,6.45L340.77,89l115.38,66.67v-1.85Zm0,6.45-.36,1.61,115.38,66.67v-1.85Z" style="opacity:0.2"></path></g></g></g><g id="freepik--Shadow--inject-119"><polygon id="freepik--shadow--inject-119" points="188.22 492.91 45.63 410.51 333.87 244.07 476.46 326.46 188.22 492.91" style="fill:#e0e0e0"></polygon></g><g id="freepik--Gears--inject-119"><g id="freepik--gears--inject-119"><path d="M321.08,437.77l9.72.1a3.62,3.62,0,0,0,2.29-1.09,26.85,26.85,0,0,1,2.37-2.24.61.61,0,0,0,.27-.47.53.53,0,0,0-.18-.42l-4-4a2.4,2.4,0,0,1-.73-2.13,2.37,2.37,0,0,1,1.47-1.71l8.39-3.66a5.09,5.09,0,0,1,4.34.32l5.83,3.62a4.31,4.31,0,0,0,2.66.45c1.8-.37,3.68-.67,5.58-.87a2.63,2.63,0,0,0,1.83-1.26l2-4.18a4,4,0,0,1,3.75-2.18l10.65.79a2.93,2.93,0,0,1,2.71,3.2l-.37,4a1.24,1.24,0,0,0,.87,1.22,44.89,44.89,0,0,1,4.59,1.53,4.7,4.7,0,0,0,2.77.11l8.19-2.83a4.9,4.9,0,0,1,4.29.71l5.56,4.35a2.23,2.23,0,0,1-.33,3.87l-6.71,3.62a.78.78,0,0,0-.26,1.09,12.38,12.38,0,0,1,.81,2,2.11,2.11,0,0,0,1.45,1.36l9.28,1.31a2.69,2.69,0,0,1,2.25,3.44l-1.33,4.74a3.69,3.69,0,0,1-3.46,2.58l-9.71-.1a3.71,3.71,0,0,0-2.3,1.08,23.11,23.11,0,0,1-2.37,2.24.72.72,0,0,0-.27.48.55.55,0,0,0,.19.42l4,4a2.26,2.26,0,0,1-.73,3.84L388,470.77a5.09,5.09,0,0,1-4.34-.32l-5.83-3.62a4.32,4.32,0,0,0-2.66-.45c-1.8.37-3.68.66-5.59.86a2.7,2.7,0,0,0-1.83,1.27l-2,4.18a4,4,0,0,1-3.75,2.18l-10.66-.79a2.93,2.93,0,0,1-2.7-3.2l.37-4a1.26,1.26,0,0,0-.88-1.22,42.39,42.39,0,0,1-4.58-1.54,4.78,4.78,0,0,0-2.77-.1l-8.19,2.83a4.89,4.89,0,0,1-4.29-.71l-5.56-4.36a2.35,2.35,0,0,1-1-2,2.37,2.37,0,0,1,1.31-1.84l6.71-3.62a.79.79,0,0,0,.25-1.09,14.58,14.58,0,0,1-.81-2,2.09,2.09,0,0,0-1.44-1.36l-9.28-1.31a2.72,2.72,0,0,1-1.93-1.19,2.76,2.76,0,0,1-.32-2.25l1.33-4.74a4,4,0,0,1,.16-.45A3.72,3.72,0,0,1,321.08,437.77Zm9.77,18.39-6.71,3.62-.17.11a.66.66,0,0,0,.15.15l5.56,4.36a2.75,2.75,0,0,0,2.25.37l8.19-2.83a6.8,6.8,0,0,1,4.27.14,40.69,40.69,0,0,0,4.37,1.46,3.41,3.41,0,0,1,2.45,3.49l-.37,4.05a.78.78,0,0,0,.18.58.81.81,0,0,0,.54.27l10.65.79a1.91,1.91,0,0,0,1.64-1l2-4.19a4.82,4.82,0,0,1,3.56-2.48c1.83-.2,3.64-.47,5.38-.83A6.5,6.5,0,0,1,379,465l5.83,3.63a3,3,0,0,0,2.34.17l8.39-3.66a.45.45,0,0,0,.2-.13.38.38,0,0,0-.13-.21l-4-4a2.68,2.68,0,0,1-.81-2.05,2.78,2.78,0,0,1,1-2,22.09,22.09,0,0,0,2.15-2A5.8,5.8,0,0,1,398,452.9l9.72.1a1.52,1.52,0,0,0,1.35-1l1.33-4.73a.62.62,0,0,0-.05-.49.6.6,0,0,0-.42-.24l-9.28-1.3a4.27,4.27,0,0,1-3.2-2.83,11.32,11.32,0,0,0-.69-1.67,2.92,2.92,0,0,1,1.16-4l6.71-3.62a.92.92,0,0,0,.17-.11.5.5,0,0,0-.14-.16l-5.56-4.35h0a2.78,2.78,0,0,0-2.26-.37L388.62,431a6.83,6.83,0,0,1-4.28-.14,42.85,42.85,0,0,0-4.36-1.46,3.41,3.41,0,0,1-2.45-3.49l.37-4a.77.77,0,0,0-.72-.85l-10.65-.79a1.87,1.87,0,0,0-1.64,1l-2,4.18a4.79,4.79,0,0,1-3.55,2.48,54.38,54.38,0,0,0-5.38.83,6.52,6.52,0,0,1-4.24-.72l-5.82-3.63a3,3,0,0,0-2.34-.17l-8.39,3.66a.53.53,0,0,0-.21.13.49.49,0,0,0,.14.21l4,4a2.68,2.68,0,0,1,.81,2.05,2.81,2.81,0,0,1-1.05,2,22.23,22.23,0,0,0-2.16,2,5.8,5.8,0,0,1-3.9,1.78l-9.72-.1a1.5,1.5,0,0,0-1.35,1l-1.34,4.73a.55.55,0,0,0,.48.73l9.28,1.3a4.24,4.24,0,0,1,3.19,2.83,12.52,12.52,0,0,0,.69,1.67,3,3,0,0,1,.09,2.63A2.82,2.82,0,0,1,330.85,456.16Zm21.23-20h0c9.41-4.09,22.61-3.09,29.43,2.25,3.09,2.42,4.57,5.48,4.17,8.62-.49,3.87-3.78,7.39-9,9.68-9.41,4.09-22.61,3.09-29.42-2.25-3.09-2.42-4.57-5.48-4.17-8.62a8.33,8.33,0,0,1,.71-2.48C345.08,440.52,348,438,352.08,436.19Zm31.46,10.59c.3-2.38-.86-4.68-3.36-6.64-6.26-4.9-18.48-5.78-27.24-2-4.52,2-7.34,4.88-7.74,8-.31,2.38.85,4.68,3.36,6.64,6.25,4.9,18.47,5.78,27.23,2,3.6-1.57,6.12-3.73,7.21-6.1A6.72,6.72,0,0,0,383.54,446.78Z" style="fill:#e0e0e0"></path><path d="M391.54,400.59l6.91.07a2.41,2.41,0,0,0,1.49-.7,17.54,17.54,0,0,1,1.71-1.61c.07-.07.12-.14.05-.37l-2.83-2.84a1.87,1.87,0,0,1-.57-1.67,1.9,1.9,0,0,1,1.15-1.36l6-2.59a3.79,3.79,0,0,1,3.25.24l4.14,2.57a2.9,2.9,0,0,0,1.77.29c1.29-.26,2.64-.47,4-.61a1.73,1.73,0,0,0,1.16-.8l1.42-3a3,3,0,0,1,2.84-1.65l7.57.56a2.26,2.26,0,0,1,2.09,2.47l-.26,2.88a.68.68,0,0,0,.49.66,31.54,31.54,0,0,1,3.28,1.11,3.31,3.31,0,0,0,1.84.07l5.82-2a3.73,3.73,0,0,1,3.22.54l4,3.09a1.76,1.76,0,0,1-.26,3.05l-4.77,2.58a.38.38,0,0,0-.1.53,10.6,10.6,0,0,1,.58,1.42,1.34,1.34,0,0,0,.88.85l6.6.93a2.08,2.08,0,0,1,1.49.93,2.12,2.12,0,0,1,.26,1.74l-.95,3.37a2.77,2.77,0,0,1-2.63,2l-6.91-.07a2.45,2.45,0,0,0-1.49.71,18.77,18.77,0,0,1-1.7,1.61c-.08.06-.13.14-.05.37l2.82,2.83a1.79,1.79,0,0,1-.57,3l-6,2.6a3.82,3.82,0,0,1-3.25-.24l-4.14-2.58a3,3,0,0,0-1.76-.29,40,40,0,0,1-4,.62,1.7,1.7,0,0,0-1.16.8l-1.41,3a3.07,3.07,0,0,1-2.85,1.65l-7.57-.56A2.28,2.28,0,0,1,411,424.3l.26-2.88a.69.69,0,0,0-.48-.67,32.32,32.32,0,0,1-3.28-1.1,3.17,3.17,0,0,0-1.85-.07l-5.81,2a3.68,3.68,0,0,1-3.23-.54L392.64,418a1.76,1.76,0,0,1,.26-3l4.77-2.57a.39.39,0,0,0,.11-.54,9.08,9.08,0,0,1-.59-1.42,1.29,1.29,0,0,0-.88-.84l-6.6-.93a2.09,2.09,0,0,1-1.74-2.68l.94-3.36a3.62,3.62,0,0,1,.13-.35A2.82,2.82,0,0,1,391.54,400.59Zm7,13.42-4.76,2.46,3.95,3.09a1.85,1.85,0,0,0,1.43.24l5.82-2a5.07,5.07,0,0,1,3.17.11,30,30,0,0,0,3.08,1,2.6,2.6,0,0,1,1.87,2.67l-.26,2.88a.34.34,0,0,0,.09.27.33.33,0,0,0,.25.13l7.57.57a1.19,1.19,0,0,0,1-.58l1.42-3a3.59,3.59,0,0,1,2.67-1.87c1.29-.14,2.57-.33,3.81-.59a4.86,4.86,0,0,1,3.14.54l4.14,2.58a2,2,0,0,0,1.49.11l6-2.55-2.83-2.83a2.13,2.13,0,0,1-.63-1.59,2.19,2.19,0,0,1,.81-1.58,14,14,0,0,0,1.52-1.44,4.36,4.36,0,0,1,2.91-1.32l6.91.07a.85.85,0,0,0,.78-.58l.95-3.37.06-.23-.25-.05-6.59-.93a3.21,3.21,0,0,1-2.42-2.14,9.48,9.48,0,0,0-.48-1.16,2.24,2.24,0,0,1,.9-3l4.76-2.46-3.95-3.09h0a1.81,1.81,0,0,0-1.43-.24l-5.82,2a5.11,5.11,0,0,1-3.16-.1,30.06,30.06,0,0,0-3.08-1,2.59,2.59,0,0,1-1.88-2.67l.26-2.87a.42.42,0,0,0-.08-.28.4.4,0,0,0-.26-.13l-7.57-.56a1.18,1.18,0,0,0-1,.57l-1.42,3a3.6,3.6,0,0,1-2.67,1.88c-1.28.13-2.56.33-3.8.58a4.82,4.82,0,0,1-3.15-.54l-4.14-2.57a1.93,1.93,0,0,0-1.49-.11l-6,2.54,2.83,2.83a2.13,2.13,0,0,1,.63,1.6,2.19,2.19,0,0,1-.81,1.58,14.94,14.94,0,0,0-1.52,1.43,4.25,4.25,0,0,1-2.91,1.32l-6.91-.07a.91.91,0,0,0-.78.59l-.95,3.36.19.29,6.6.93a3.17,3.17,0,0,1,2.41,2.13,8.87,8.87,0,0,0,.48,1.16,2.34,2.34,0,0,1,.07,2A2.19,2.19,0,0,1,398.57,414Zm14.93-14.52h0c6.75-2.94,16.21-2.21,21.1,1.62,2.25,1.76,3.33,4,3,6.29-.35,2.82-2.74,5.38-6.52,7-6.74,2.94-16.21,2.21-21.1-1.62-2.25-1.76-3.32-4-3-6.29a6.23,6.23,0,0,1,.52-1.81C408.45,402.62,410.55,400.78,413.5,399.49Zm22.25,7.67c.21-1.63-.59-3.2-2.32-4.55-4.4-3.45-13-4.07-19.17-1.38h0c-3.16,1.37-5.13,3.39-5.4,5.52-.21,1.63.6,3.21,2.32,4.56,4.4,3.45,13,4.06,19.17,1.37,2.52-1.09,4.28-2.59,5-4.24A4.25,4.25,0,0,0,435.75,407.16Z" style="fill:#e0e0e0"></path></g></g><g id="freepik--Character--inject-119"><g id="freepik--character--inject-119"><g id="freepik--Chair--inject-119"><path d="M218.51,347.86c.25-3.33-2.38-7.13-8.25-11.63-10.83-8.32-46-30.71-61.31-40.84a.16.16,0,0,0-.12-.14c-11.71-8.45-14.33-66.31-20.7-94a49.83,49.83,0,0,0-1.39-5.11l-.12-.37-.4-1.14c-.07-.19-.13-.39-.2-.57h0a26.08,26.08,0,0,0-5-8.66,12.59,12.59,0,0,0-2.63-2.18c-1.33-.89-4.55-2.5-5.24-3-8-5.66-28.15,8.71-42.41,15.1-8.86,4-16.55,8.94-21.79,18.9h0a60.18,60.18,0,0,0-5.7,18.24c-2.35,14.14-1.88,61.6-.63,82.45h0c1.44,34.79,6.57,35.25,13.58,41.62,12.05,10.94,47.42,33.33,59.23,39.1,21.41,10.47,39.64-1.07,53.05-8,19.33-9.93,37.09-21,43.09-25,3.49-2.29,6.3-5.89,6.47-8.5C218.06,353.18,218.42,349,218.51,347.86Z" style="fill:#263238"></path><path d="M169.26,380.71c17.59-9.47,37.57-21,43.56-25.78,7.41-5.94,7.86-10.7-2.56-18.7-14.46-11.11-69.7-46.39-69.7-46.39s-69,33.26-85.38,47.78c-2.47,2.2-2.57,6.85-1.71,7.93,9,11.2,48.88,37.06,62.42,43.68C137.31,399.69,156,387.85,169.26,380.71Z" style="fill:#455a64"></path><path d="M118.35,183.22a2.32,2.32,0,0,0-.23-.14,12.24,12.24,0,0,0-5.91-1.85c-7.23-.58-18.66,4.48-35.76,15.53A93.61,93.61,0,0,0,61.79,208l-.27.26a34.69,34.69,0,0,0-3.75,4.2c-.19.24-.37.49-.56.74s-.21.29-.3.43l-.7,1c-.45.7-.89,1.42-1.32,2.17l-.13.23-.49.92,0,0-5.31-3.68c5.23-10,13.27-15.09,21.54-20.16,14.27-8.75,30.15-20.11,40.27-15.21C111.49,179.23,117,182.33,118.35,183.22Z" style="fill:#455a64"></path><path d="M128.13,201.25c-.92-3.65-4.12-19.39-15.92-20-7.23-.58-18.66,4.48-35.76,15.53-8,5.14-17.14,11.74-21.69,20.25C48.05,227.6,47,257,47.4,285.21s2.23,55.37,6.05,60.36c6.71-18.84,86.08-55.92,95.38-50.32C137.12,286.8,134.5,228.94,128.13,201.25Z" style="fill:#37474f"></path></g><g id="freepik--character--inject-119"><g id="freepik--Bottom--inject-119"><path d="M63,299.23c-.43,14.74,1.19,27.17,2.92,34.25,2.11,8.66,8.77,20.07,25.29,29.79,23.49,13.82,39.83,23,39.83,23L225.08,332l-62-38.8Z" style="fill:#FF9914"></path><path d="M156,319.7c-3.13,10.08-9.65,14.88-9.65,14.88,12.19,8.88,25.14,18.23,32.11,24.28l8.48-4.89-32.85-21.78C157.56,325.05,156,319.7,156,319.7Z" style="opacity:0.25"></path><path d="M142.18,379.8c-5.26-2.94-11.17-6.3-16.36-9.36q-11-6.51-21.85-13.41a118.07,118.07,0,0,1-15.16-10.9,8.7,8.7,0,0,0,3.85-4.72,12.92,12.92,0,0,0,.08-7.59c-.71-2.68-2.13-5.08-3.07-7.67a33.47,33.47,0,0,1-1.74-7.92c-.17-1.51-.28-3-.34-4.55s-.07-3-.26-4.52c0-.34-.65-.61-.69-.15a50,50,0,0,0,.11,7.93,38.2,38.2,0,0,0,1.3,7.67c1.43,5,5,9.59,3.93,15.06a8.24,8.24,0,0,1-4,5.75c-1-.95-2.06-1.93-3-3a39.88,39.88,0,0,1-6.34-8.91,32,32,0,0,1-3.29-11.15,91.06,91.06,0,0,1-.22-12.47q.15-6.1.29-12.22h-.93c-.11,2.93-.21,5.85-.3,8.78-.11,4.25-.32,8.51-.13,12.75A36.55,36.55,0,0,0,76.39,331a37,37,0,0,0,5.66,9.54c5,6.2,11.5,10.87,18.1,15.17,7.23,4.7,14.58,9.23,22,13.65,6.09,3.63,12.77,7.58,19,11Z" style="opacity:0.25"></path></g><g id="freepik--Top--inject-119"><path id="freepik--Chest--inject-119" d="M87.94,176.83A203.67,203.67,0,0,0,60.46,188S47.62,201.27,55,229.55c2.59,9.88,4.54,23.2,5.82,35.59,1.47,14.31.19,32.72,2.67,55.53,0,0,31.29,12.49,74.47-2.41,25.55-8.82,28.64-23.42,28.64-23.42s-5.57-32.44-7.17-56.08C157,202.61,148.71,182,140,175.41l-19.62,2.93Z" style="fill:#f5f5f5"></path><path id="freepik--chest--inject-119" d="M139.76,176.39c9.63,7.72,16.63,31,18.76,62.43,1.52,22.46,6.68,53.22,7.14,56-.44,1.58-4.73,14.55-28,22.58a129.18,129.18,0,0,1-42.11,7.26c-17.11,0-28.67-3.75-31.2-4.65-1.34-12.62-1.53-23.91-1.71-33.88-.13-7.95-.25-14.81-.89-21.06-1.48-14.28-3.55-27-5.84-35.73-6.83-26.08,4-39.23,5.1-40.54a204.89,204.89,0,0,1,27-11l32.29,1.51h.19l19.22-2.88m.26-1-19.62,2.93-32.46-1.51A203.67,203.67,0,0,0,60.46,188S47.62,201.27,55,229.55c2.59,9.88,4.54,23.2,5.82,35.59,1.47,14.31.19,32.72,2.67,55.53,0,0,12.27,4.9,32.06,4.9A129.7,129.7,0,0,0,138,318.26c25.55-8.82,28.64-23.42,28.64-23.42s-5.57-32.44-7.17-56.08C157,202.61,148.71,182,140,175.41Z" style="fill:#e0e0e0"></path><g id="freepik--Head--inject-119"><path d="M68.69,150.18c5.44,9.26,9.87,12.73,12.08,15.12a7.92,7.92,0,0,0,5.39,2.35L82.58,155.8l-2.71-8.2s5-7.9,3.9-14a24.46,24.46,0,0,0-2.1-6.59L122,118.77s.89-11.06-6.5-17.57C108.45,95,99.71,92.12,86.6,96.47c-16,5.32-22.23,15.62-21.54,22.65h0a12,12,0,0,0-4.49,7.54C59.86,130.06,60.25,135.79,68.69,150.18Z" style="fill:#263238"></path><path d="M73.19,161.09a8.39,8.39,0,0,0,1.32.4,8.3,8.3,0,0,0,3.61.14A6.55,6.55,0,0,0,80.74,160a9.89,9.89,0,0,0,2.12-2.69L84.28,180c11.53,12.89,48.5,7.62,32.61-5.08l.1-8.21a38.47,38.47,0,0,0,5.16-2,14.72,14.72,0,0,0,9-13.55c0-9.42-7-28.06-11.28-38-1.2-2.82-4.15-5.7-7.13-6.29-7.39-1.47-12.12,4.86-20.2,10.9-3.35,2.5-12.27,5.64-15,5.15A12.37,12.37,0,0,1,82,129.75a17.69,17.69,0,0,1,.43,6.11,29.24,29.24,0,0,0-.61,5.51,4,4,0,0,1-.29,2.49,2.43,2.43,0,0,1-2.92.62,12.37,12.37,0,0,1-2.65-1.85A7.28,7.28,0,0,0,72,141.05a6.73,6.73,0,0,0-6.28,4.37,11.19,11.19,0,0,0,.26,8A13.09,13.09,0,0,0,73.19,161.09Z" style="fill:#c8856a"></path><path d="M117,166.67c-7.12,1.9-13.67,2.73-18.35,2.09s-10-5.36-12.75-10.72c1.25,4.58,5.46,12.16,12.74,13.79s13.63-.08,18.31-1.25Z" style="fill:#af6152"></path><path d="M96.37,124.11,92,129.27a3.59,3.59,0,0,1-.4-4.93A3.29,3.29,0,0,1,96.37,124.11Z" style="fill:#263238"></path><path d="M120.26,121.49l-6.79.58a3.26,3.26,0,0,1,3-3.73A3.62,3.62,0,0,1,120.26,121.49Z" style="fill:#263238"></path><path d="M96.06,134.42a2.75,2.75,0,1,0,1.67-3.54A2.77,2.77,0,0,0,96.06,134.42Z" style="fill:#263238"></path><path d="M115.41,127.61a2.75,2.75,0,1,0,1.66-3.54A2.77,2.77,0,0,0,115.41,127.61Z" style="fill:#263238"></path><path d="M106.07,127.4l6.73,16.43,8.55-6.28Q113.82,130.1,106.07,127.4Z" style="fill:#af6152"></path><path d="M113.61,150.27l-.1,0a.73.73,0,0,1-.38-.08,26.69,26.69,0,0,0-2.94-1.31,9.42,9.42,0,0,0-2.75-.44,17.66,17.66,0,0,1-2.61.21.33.33,0,0,1-.26-.47c.41-.71,1.77-.76,2.5-.79a7.79,7.79,0,0,1,2.71.37,11.66,11.66,0,0,1,2.6,1.23,12.41,12.41,0,0,1,1.2.85C113.72,150,113.77,150.19,113.61,150.27Z" style="fill:#af6152"></path></g><path d="M92.78,278.15c-5.12-.23-9.75-.44-17.66-12-6.12-8.94-9.4-14.85-15.59-27.47s-10.78-21.38-10.61-29.58c.14-6.71,1.53-14,13.07-19.06,7.24,4.18,17.51,16.43,22.51,27.7s13.89,32.32,13.89,32.32Z" style="fill:#c8856a"></path><path d="M60.46,188c-9.66,5.52-14.74,16.47-10.77,30.06,4.46,15.28,15.7,35.31,15.7,35.31s6.92,0,15.36-6a32.69,32.69,0,0,0,11.33-14.85s-4.87-12-7.52-18.42C79.32,201.49,69.36,189.73,60.46,188Z" style="fill:#37474f"></path><path d="M79.31,253.4c-.24-13.84,5.7-22.53,10.07-33.09s6.73-16.91,8.24-23.25,2-15.5,1-20.12a66.9,66.9,0,0,0-3.47-10.27c-1-2.28,0-2.57,2.15-2.56s4.61.93,6.82,4.9,2.88,6.38,3.8,6.07,5.49-6,8.16-8.73,3.71-2.87,8-3.58,8.56-.69,10.35-.21,4.51,2.85,5.61,3.65c1.53,1.09-.9,3.31-3.71,2.44l-2.81-.88c1.13.81,1.1,2,1.33,3.42a4,4,0,0,1-.74,2.74s1,.27,1.5,2.09a6.83,6.83,0,0,1,0,3.32,1.58,1.58,0,0,1,1.64.77c.66,1,1.56,2.62-2,6.14s-6.18,5.9-9.24,8.66a25,25,0,0,0-5.24,6c-1.82,2.9-2.2,7.69-3.1,15.4-2,17.1-2.36,21.34-4.83,31.85-1.87,8-4.11,16.26-12.31,25.48-7.23,8.12-12.46,3.85-15.65-1.62S79.4,258.11,79.31,253.4Z" style="fill:#c8856a"></path><path d="M79.31,253.4c-.87-12.8,6-24.12,10.58-35.57a186.4,186.4,0,0,0,6.3-17.55,55.8,55.8,0,0,0,1.86-22.86,65.22,65.22,0,0,0-3.66-11c-1.47-3.67,3.93-3.17,5.9-2.17,3.74,1.94,5,6.2,6.85,9.61.16.28.5.84.63.75,3.6-3.1,6.26-7.43,10.14-10.36a10.45,10.45,0,0,1,4.53-1.51,43.21,43.21,0,0,1,9.37-.65c3.32-.15,5.8,2.17,8.21,4.13-2.47-1.82-5-4-8.23-3.8a42.92,42.92,0,0,0-9.24.92,10,10,0,0,0-4.25,1.48c-3.86,3-6.32,7.47-10.11,10.65-1.56.73-2.39-2.27-3-3.21-1.37-2.6-2.66-5.68-5.37-7a6.65,6.65,0,0,0-4.16-.42c-.62.19-.3.72-.18,1.22,2.08,5.06,4.22,10.36,4.26,15.9.49,12.69-4.07,24.79-9,36.26S79,240.58,79.31,253.4Z" style="fill:#af6152"></path><path d="M122.41,169.8c3.18-2,7.56-4.45,11.09-2a8.48,8.48,0,0,0-5.52.32c-1.64.54-3.92,1.27-5.57,1.71Z" style="fill:#af6152"></path><path d="M125.73,176.63a13.09,13.09,0,0,1,8.36-2.7,59.47,59.47,0,0,1-8.36,2.7Z" style="fill:#af6152"></path><path d="M128.4,183.3a52.4,52.4,0,0,1,7.2-4,11.57,11.57,0,0,1-7.2,4Z" style="fill:#af6152"></path></g></g><g id="freepik--Desk--inject-119"><polygon points="60.89 387.83 60.89 409.46 181.59 479.33 181.59 457.7 60.89 387.83" style="fill:#37474f"></polygon><polygon points="181.59 457.7 452.71 301.14 452.71 322.77 181.59 479.33 181.59 457.7" style="fill:#455a64"></polygon><polygon points="181.59 449.5 55.38 376.48 331.07 217.28 457.28 290.31 181.59 449.5" style="fill:#FF9914"></polygon><polygon points="181.59 449.5 55.38 376.48 331.07 217.28 457.28 290.31 181.59 449.5" style="fill:#fff;opacity:0.8"></polygon><polygon points="55.38 376.48 55.38 387.95 181.59 460.98 181.59 449.5 55.38 376.48" style="fill:#FF9914"></polygon><polygon points="55.38 376.48 55.38 387.95 181.59 460.98 181.59 449.5 55.38 376.48" style="fill:#fff;opacity:0.5"></polygon><polygon points="181.59 460.98 457.28 301.78 457.28 290.31 181.59 449.5 181.59 460.98" style="fill:#FF9914"></polygon><polygon points="181.59 449.5 457.28 290.31 457.28 301.78 181.59 460.98 181.59 449.5" style="fill:#fff;opacity:0.65"></polygon></g><g id="freepik--Arm--inject-119"><path d="M274.16,121.45a2.3,2.3,0,0,1-1.09.49c-2.52.51-5.2-.25-7.67.43a13.06,13.06,0,0,0-4.77,2.95c-2.76,2.29-5.51,4.68-7.37,7.74-2.84,4.69-3,11.35.6,15.58a49.8,49.8,0,0,1,3.71,4.12,5.61,5.61,0,0,1,.93,5.23,1.53,1.53,0,0,1-1.14,1,1.92,1.92,0,0,1-1-.28,89,89,0,0,1-8-4.63c-1.81-1.16-2.88-1.07-5-1.63-6.66-1.77-10.41,7.19-13.16,11.78-3.91,6.56-7.53,13.28-11.2,20-1.93,3.5-3.86,7-5.91,10.42-2.69,4.52-7.2,5.92-13.69,7.45-1.75.41-6.49,1.36-12.56,2.49-9.24,1.71-21.59,3.83-31.19,5-3.52-17-8.77-27.91-14.27-33.07,10.87-1.73,27.72-4.46,39.48-6.37L194.3,168c1-1.14,15.26-19.07,23.15-27.4,4.46-4.7,9-9.37,13.64-13.86a48.29,48.29,0,0,1,6-5.36,65.11,65.11,0,0,1,6-3.75,28.78,28.78,0,0,1,8.37-3.07,17,17,0,0,1,7.78.21,20.51,20.51,0,0,0,2.85.81,14.09,14.09,0,0,0,2.68,0c3.26-.11,6.88.47,9,3C274.49,119.41,274.93,120.73,274.16,121.45Z" style="fill:#c8856a"></path><path d="M187.85,188.84a39.85,39.85,0,0,0-7-18.64c-.2-.27-.32-.4-.32-.4s-29.19,3.59-40.53,5.61a14.3,14.3,0,0,1,1.37,1.16c5.5,5.16,10.75,16.05,14.27,33.07.11.49.21,1,.31,1.5l30.35-5.26a9.24,9.24,0,0,0,.53-1.29C187.62,202.39,188.82,197.34,187.85,188.84Z" style="fill:#37474f"></path></g></g></g><g id="freepik--Sheets--inject-119"><g id="freepik--sheets--inject-119"><polygon id="freepik--shadow--inject-119" points="246.79 278.85 309.86 242.45 389.51 288.52 326.44 324.93 246.79 278.85" style="fill:#FF9914;opacity:0.30000000000000004"></polygon><g id="freepik--sheets--inject-119"><g id="freepik--character--inject-119"><polygon points="253.53 279.68 326.42 321.84 326.42 289.07 253.53 246.91 253.53 279.68" style="fill:#e6e6e6"></polygon><polygon points="384.79 288.14 326.42 321.84 326.42 289.07 384.79 255.37 384.79 288.14" style="fill:#f0f0f0"></polygon><polygon points="253.53 246.91 311.91 213.21 384.79 255.37 326.42 289.07 253.53 246.91" style="fill:#fff"></polygon><path d="M311.91,214.13l71.3,41.24-56.79,32.78-71.3-41.24,56.79-32.78m0-.92-58.38,33.7,72.89,42.16,58.37-33.7-72.88-42.16Z" style="fill:#ebebeb"></path></g><polygon points="291.52 280.72 326.42 300.87 377.79 274.2 326.42 302.12 291.52 280.72" style="opacity:0.1"></polygon><polygon points="270.57 283.04 326.42 315.28 368.3 291.1 326.42 316.5 270.57 283.04" style="opacity:0.1"></polygon><path d="M260.55,263.5s-1.16,6.52-.58,9.82c0,0,9.14-.23,24.57,4Z" style="opacity:0.1"></path><polygon points="260.55 263.5 284.54 277.35 257.99 269.68 260.55 263.5" style="fill:#fff"></polygon><path d="M291.52,287.68l26.3,24.18s.73-3.32,5.78-5.66Z" style="opacity:0.1"></path><polygon points="291.52 287.68 316.22 308.48 323.6 306.2 291.52 287.68" style="fill:#fafafa"></polygon><path d="M373.38,270a3.28,3.28,0,0,0-.22-.32l-16.62,9.59,18.71-1.53C375.89,274.26,374,271,373.38,270Z" style="opacity:0.1"></path><polygon points="356.54 279.27 373.16 269.68 378.69 272.59 356.54 279.27" style="fill:#fafafa"></polygon><g style="opacity:0.15"><path d="M266.38,250a.65.65,0,0,1-.33-1.21l49.74-28.71a.65.65,0,0,1,.88.24.64.64,0,0,1-.24.88L266.7,249.93A.65.65,0,0,1,266.38,250Z"></path><path d="M273.36,254.05a.65.65,0,0,1-.33-1.21l49.74-28.71a.65.65,0,0,1,.88.24.64.64,0,0,1-.24.88L273.68,254A.65.65,0,0,1,273.36,254.05Z"></path><path d="M280.34,258.08a.64.64,0,0,1-.56-.33.65.65,0,0,1,.23-.88l49.74-28.71a.65.65,0,0,1,.88.24.64.64,0,0,1-.24.88L280.66,258A.62.62,0,0,1,280.34,258.08Z"></path><path d="M287.32,262.11a.66.66,0,0,1-.56-.32.64.64,0,0,1,.24-.88l49.73-28.72a.66.66,0,0,1,.88.24.64.64,0,0,1-.24.88L287.64,262A.62.62,0,0,1,287.32,262.11Z"></path><path d="M294.3,266.14a.66.66,0,0,1-.56-.32.65.65,0,0,1,.23-.88l49.74-28.71a.64.64,0,1,1,.64,1.11l-49.73,28.71A.62.62,0,0,1,294.3,266.14Z"></path><path d="M301.28,270.17a.66.66,0,0,1-.56-.32A.64.64,0,0,1,301,269l49.73-28.71a.64.64,0,1,1,.64,1.11L301.6,270.08A.62.62,0,0,1,301.28,270.17Z"></path><path d="M308.26,274.2a.66.66,0,0,1-.56-.32.64.64,0,0,1,.24-.88l49.73-28.71a.64.64,0,1,1,.64,1.11l-49.73,28.71A.62.62,0,0,1,308.26,274.2Z"></path><path d="M315.24,278.23a.66.66,0,0,1-.56-.32.64.64,0,0,1,.24-.88l49.73-28.71a.64.64,0,1,1,.64,1.11l-49.73,28.71A.62.62,0,0,1,315.24,278.23Z"></path><path d="M322.22,282.26a.66.66,0,0,1-.56-.32.64.64,0,0,1,.24-.88l49.73-28.71a.64.64,0,1,1,.64,1.11l-49.73,28.71A.62.62,0,0,1,322.22,282.26Z"></path></g></g></g></g><g id="freepik--trash-can--inject-119"><g id="freepik--trash-can--inject-119"><path id="freepik--shadow--inject-119" d="M289.18,234.86c-16.7,9.25-16.7,24.25,0,33.5s43.79,9.24,60.5,0,16.7-24.25,0-33.5S305.89,225.61,289.18,234.86Z" style="opacity:0.1"></path><path d="M282.81,247.49c0-11.37,16.4-20.59,36.62-20.59s36.63,9.22,36.63,20.59v2.7c0,11.38-16.4,20.6-36.63,20.6s-36.62-9.22-36.62-20.6Z" style="fill:#FF9914"></path><path d="M282.81,247.49c0-11.37,16.4-20.59,36.62-20.59s36.63,9.22,36.63,20.59v2.7c0,11.38-16.4,20.6-36.63,20.6s-36.62-9.22-36.62-20.6Z" style="fill:#fff;opacity:0.2"></path><path d="M282.81,247.49c0,11.38,16.4,20.6,36.62,20.6s36.63-9.22,36.63-20.6-16.4-20.59-36.63-20.59S282.81,236.12,282.81,247.49Z" style="fill:#FF9914"></path><path d="M282.81,247.49c0,11.38,16.4,20.6,36.62,20.6s36.63-9.22,36.63-20.6-16.4-20.59-36.63-20.59S282.81,236.12,282.81,247.49Z" style="fill:#fff;opacity:0.45"></path><path d="M326.34,141.79a.73.73,0,0,0-.8.77l-1.14,59.88a.78.78,0,0,0,.76.8h0a.78.78,0,0,0,.78-.76l1.15-59.89A.79.79,0,0,0,326.34,141.79Zm13.37,2.45a.76.76,0,0,0-.83.73l-3.49,55.14a.79.79,0,0,0,.74.83h.05a.79.79,0,0,0,.78-.74l3.48-55.14A.78.78,0,0,0,339.71,144.24Zm18.62,7.43a.79.79,0,0,0-.89.66l-4.77,34.94a.79.79,0,0,0,.66.89h.11a.79.79,0,0,0,.78-.67L359,152.56A.78.78,0,0,0,358.33,151.67Zm-7.81-1.93a.77.77,0,0,0-.86.69l-4.7,45a.77.77,0,0,0,.69.86h.09a.78.78,0,0,0,.77-.7l4.71-45A.78.78,0,0,0,350.52,149.74Zm-70.89,1.93a.79.79,0,0,0-.66.89l4.78,34.93a.78.78,0,0,0,.77.67h.11a.78.78,0,0,0,.66-.89l-4.77-34.94A.79.79,0,0,0,279.63,151.67Zm7.81-1.93a.78.78,0,0,0-.7.85l4.71,45a.78.78,0,0,0,.78.7h.08a.79.79,0,0,0,.7-.86l-4.71-45A.76.76,0,0,0,287.44,149.74Zm24.18-8a.78.78,0,0,0-.76.8L312,202.48a.78.78,0,0,0,.78.76h0a.78.78,0,0,0,.76-.8l-1.14-59.88A.73.73,0,0,0,311.62,141.79Zm-13.37,2.45a.78.78,0,0,0-.73.83L301,200.21a.78.78,0,0,0,.78.74h0a.77.77,0,0,0,.73-.83L299.08,145A.75.75,0,0,0,298.25,144.24Z" style="fill:#e0e0e0"></path><path d="M353.42,211.41c-2-2.44-4.66-4.75-5.32-8-.45-2.14-1.05-4.24-1.51-6.32s.55-3.61.49-5.58a9.07,9.07,0,0,0-6.55-8.31c-1.44-.37-3-.36-4.42-.71a38.86,38.86,0,0,1-5.1-2.11A17.13,17.13,0,0,0,314,183.06a9.92,9.92,0,0,0-2.58,3.08,14,14,0,0,0-1.09,4.45c-.54,4-1.34,8.53-4.65,10.91-2.26,1.63-5.19,1.88-7.87,2.65s-5.5,2.55-5.79,5.32c-.14,1.36.38,2.73.22,4.09-.25,2.05-1.94,3.56-3.38,5S286,222,286.48,224a15.94,15.94,0,0,0,1.22,2.49c1.37,2.91-.52,6.09-1,9a24.84,24.84,0,0,0,.56,11.9c.75,2.27,2,5.61,4.39,6.37,3.24,1,6.27,0,9.22,2.41,1.17,1,2.05,2.27,3.2,3.27a11.85,11.85,0,0,0,7.72,2.58c2.23,0,4.37-.82,6.54-.85,1.59,0,2.75.58,4.31.95,3.21.76,7.24.75,9.65-1.85,1.74-1.87,2.35-4.83,4.62-6s5.23.22,7.9.15c4.49-.11,7.82-4.58,8.54-9s-.43-8.93-1-13.39c-.73-5.91,3.55-10.29,3.34-15.72A8.4,8.4,0,0,0,353.42,211.41Z" style="fill:#f0f0f0"></path><path d="M353.42,211.41c-.82-1-1.76-2-2.63-3-.87,2.82-2.82,5.18-3.93,7.92-1.32,3.27-1.36,6.9-1.38,10.43q0,5.76-.07,11.52a2.86,2.86,0,0,1-.5,2c-.92,1-2.6.23-3.52-.75s-1.83-2.27-3.18-2.29c-1.59,0-2.89,1.78-4.45,1.46-1.4-.28-1.88-2.2-1.31-3.52a11.35,11.35,0,0,1,2.81-3.23c1-1,1.92-2.41,1.58-3.81-4.37-.56-8.17,2.79-11.3,5.89-1.38,1.36-2.88,3.27-2.07,5,.62,1.34,2.32,1.87,3,3.16.84,1.48,0,3.45-1.35,4.46a10.67,10.67,0,0,1-4.81,1.55,8.89,8.89,0,0,1-3.52,0,3,3,0,0,1-2.33-2.38c-.11-1.18,1.12-2.39,2.23-2-2.05-1.49-4.26-3-6.8-3.11s-5.25,2.14-4.7,4.61l-10.06-.22c1.38-2-.26-4.65-2-6.36a14.31,14.31,0,0,1-2.84-3.43,4,4,0,0,1,.12-4.23c.87-1.1,2.55-1.65,2.76-3a2.26,2.26,0,0,0-2-2.31,3.53,3.53,0,0,0-1.17,0c-.83,1.82-1.66,3.64-2.32,5.53a25.46,25.46,0,0,0-.56,16.08c.75,2.27,2,5.61,4.39,6.37,3.24,1,6.27,0,9.22,2.41,1.17,1,2.05,2.27,3.2,3.27a11.85,11.85,0,0,0,7.72,2.58c2.23,0,4.37-.82,6.54-.85,1.59,0,2.75.58,4.31.95,3.21.76,7.24.75,9.65-1.85,1.74-1.87,2.35-4.83,4.62-6s5.23.22,7.9.15c4.49-.11,7.82-4.58,8.54-9s-.43-8.93-1-13.39c-.73-5.91,3.55-10.29,3.34-15.72A8.4,8.4,0,0,0,353.42,211.41Z" style="fill:#e0e0e0"></path><path d="M303.37,224.61a3.68,3.68,0,0,1,.57,3,9.42,9.42,0,0,0-.44,1.55,1.2,1.2,0,0,0,.73,1.3,1.78,1.78,0,0,0,1.24-.35,4.87,4.87,0,0,1,3.4-.71,2.42,2.42,0,0,1,1.94,2.56,4.79,4.79,0,0,0,.05-4.75,3.09,3.09,0,0,0-4.32-.93,2.83,2.83,0,0,0-1.69-3.35,4.66,4.66,0,0,0-3.73.14A4.62,4.62,0,0,1,303.37,224.61Z" style="fill:#e0e0e0"></path><path d="M320,214c-.42.28-.9.47-1.3.79a1.4,1.4,0,0,0-.59,1.31c.9-.15,1.69.61,2.19,1.37a5.16,5.16,0,0,0,1.75,2c.66.32,1.49.27,2.07.72.87.67.72,2,.49,3.07l4.26-2.87a2.76,2.76,0,0,0,.69-.58,1.84,1.84,0,0,0-.43-2.38,4.16,4.16,0,0,0-2.48-.81,12.36,12.36,0,0,1-2.65-.28c-.21-.06-.45-.17-.51-.38s.31-.61.65-.74l4.11-1.56a.63.63,0,0,0-.05-.92,1.91,1.91,0,0,0-1-.36,56.74,56.74,0,0,0-7.9-1.28C319.45,212.2,322.08,212.53,320,214Z" style="fill:#e0e0e0"></path><path d="M330.17,196.84c-2.2-.34-4.79.8-5.28,3,1.82.12,3.21,1.61,4.39,3l1.89,2.21a5.21,5.21,0,0,1,1.39,2.34c.15.83-.07,1.78.43,2.46a2.75,2.75,0,0,0,1.41.84c1.11.39,2.45.75,3.4,0a2.48,2.48,0,0,0,.65-2.72,7.17,7.17,0,0,0-1.64-2.46,10.35,10.35,0,0,1,6.05.54,2,2,0,0,0,1.46.24,1.39,1.39,0,0,0,.71-.95,3.44,3.44,0,0,0-1.42-3.51,6.56,6.56,0,0,0-3.8-1.08C335.9,200.7,333.89,197.41,330.17,196.84Z" style="fill:#e0e0e0"></path><g id="freepik--Bulb--inject-119"><g id="freepik--Socket--inject-119"><path d="M320.72,221.8c-1.07-1.18-.67-2.41.89-2.75a5.55,5.55,0,0,1,4.76,1.53c1.07,1.18.67,2.41-.89,2.75A5.52,5.52,0,0,1,320.72,221.8Z" style="fill:#263238"></path><path d="M326.52,222.85l-.55-.18a1.74,1.74,0,0,0-.47-.91,4.48,4.48,0,0,0-3.87-1.25,1.71,1.71,0,0,0-.92.47l-.55-.18.31,1.2h0a1.88,1.88,0,0,0,.44.74,4.51,4.51,0,0,0,3.87,1.25,1.81,1.81,0,0,0,.79-.35h0Z" style="fill:#263238"></path><path d="M319.87,220.55c-1.58-1.76-1-3.57,1.32-4.06a8.18,8.18,0,0,1,7,2.28c1.57,1.75,1,3.57-1.32,4.06A8.17,8.17,0,0,1,319.87,220.55Z" style="fill:#455a64"></path><path d="M320,219.85c-1.63-1.82-1-3.71,1.37-4.21a8.48,8.48,0,0,1,7.29,2.36c1.64,1.82,1,3.7-1.37,4.21A8.48,8.48,0,0,1,320,219.85Z" style="fill:#37474f"></path><path d="M320.1,219.08c-1.68-1.86-1.05-3.79,1.4-4.31a8.68,8.68,0,0,1,7.48,2.42c1.67,1.87,1,3.8-1.41,4.32A8.69,8.69,0,0,1,320.1,219.08Z" style="fill:#455a64"></path><path d="M320.24,218.32c-1.71-1.91-1.07-3.89,1.44-4.42a8.91,8.91,0,0,1,7.66,2.48c1.72,1.91,1.08,3.89-1.44,4.43A8.91,8.91,0,0,1,320.24,218.32Z" style="fill:#37474f"></path><path d="M320.39,217.56c-1.76-2-1.1-4,1.47-4.53a9.11,9.11,0,0,1,7.84,2.54c1.77,2,1.11,4-1.47,4.53A9.11,9.11,0,0,1,320.39,217.56Z" style="fill:#455a64"></path><path d="M320.54,216.79c-1.81-2-1.13-4.07,1.5-4.63a9.31,9.31,0,0,1,8,2.61c1.8,2,1.13,4.07-1.51,4.63A9.32,9.32,0,0,1,320.54,216.79Z" style="fill:#37474f"></path></g><path d="M332.2,214.77a3.11,3.11,0,0,0-1-3,9.73,9.73,0,0,0-8.4-2.73,3.1,3.1,0,0,0-2.53,1.86l-.65,2a3.1,3.1,0,0,0,.95,3,9.8,9.8,0,0,0,8.4,2.73,3.11,3.11,0,0,0,2.53-1.87C331.65,216.45,332.09,215.12,332.2,214.77Z" style="fill:#FF9914"></path><path d="M339.43,172.28a18.79,18.79,0,0,0-23.67,12.07c-4.61,14.19,6.33,20.34,4.47,26.06a3.22,3.22,0,0,0,1,3.1,10.14,10.14,0,0,0,8.72,2.83,3.2,3.2,0,0,0,2.62-1.93h0c1.86-5.72,14.33-4.27,18.93-18.45A18.79,18.79,0,0,0,339.43,172.28Z" style="fill:#fff"></path><path d="M328.43,216.76a10.62,10.62,0,0,1-7.41-3.07,3.47,3.47,0,0,1-1-3.36c.69-2.12-.47-4.32-2-7.1-2.39-4.54-5.38-10.18-2.52-19A19,19,0,1,1,351.74,196c-2.85,8.78-8.58,11.59-13.18,13.85-2.83,1.39-5.06,2.49-5.75,4.6A3.45,3.45,0,0,1,330,216.6,7.18,7.18,0,0,1,328.43,216.76Zm5.21-45.13A18.55,18.55,0,0,0,316,184.43c-2.79,8.57.14,14.11,2.49,18.55,1.47,2.78,2.74,5.18,2,7.51a3,3,0,0,0,.94,2.85,9.88,9.88,0,0,0,8.46,2.75,3,3,0,0,0,2.43-1.76c.76-2.32,3.19-3.52,6-4.91,4.51-2.22,10.13-5,12.91-13.55a18.52,18.52,0,0,0-11.89-23.34h0A18.64,18.64,0,0,0,333.64,171.63Z" style="fill:#455a64"></path><path d="M322.06,213.36c-1.64-1.81-1-3.7,1.36-4.21a8.47,8.47,0,0,1,7.3,2.37c1.63,1.82,1,3.7-1.37,4.21A8.45,8.45,0,0,1,322.06,213.36Z" style="fill:#f5f5f5"></path><path d="M330.43,215.35a4.13,4.13,0,0,1-1.08.38,8.45,8.45,0,0,1-7.29-2.37,3.71,3.71,0,0,1-.66-1,4.35,4.35,0,0,1,1.09-.38,8.45,8.45,0,0,1,7.29,2.37A3.58,3.58,0,0,1,330.43,215.35Z" style="fill:#FF9914;opacity:0.25"></path><path d="M330.43,215.35a4.13,4.13,0,0,1-1.08.38,8.45,8.45,0,0,1-7.29-2.37,3.71,3.71,0,0,1-.66-1,4.35,4.35,0,0,1,1.09-.38,8.45,8.45,0,0,1,7.29,2.37A3.58,3.58,0,0,1,330.43,215.35Z" style="fill:#ebebeb"></path><path d="M347.15,201.42a1.47,1.47,0,0,0-.69-1.81,1.56,1.56,0,0,0-1.78.55,2,2,0,0,0-.33,1.66,1.21,1.21,0,0,0,1.45.87A1.94,1.94,0,0,0,347.15,201.42Zm.48-2.71a2.77,2.77,0,0,0,1.77-1.55,14.36,14.36,0,0,0,1-10.92c-.56-2.05-1.86-4-4.24-3.79a2.9,2.9,0,0,0-.75.17,2.77,2.77,0,0,0-1.66,2.15c-.31,1.81,1,3.43,1.53,5.09a16,16,0,0,1,.75,5.63,9.94,9.94,0,0,0,0,2A1.47,1.47,0,0,0,347.63,198.71Z" style="fill:#f5f5f5"></path><path d="M327.89,214.9l-.2-.07c2.06-6.35,3.73-10.22,5.56-12.92a13.47,13.47,0,0,1,1.6-1.95,11.48,11.48,0,0,1-3.23-3.65,11.41,11.41,0,0,1-4.75,1.06,13.09,13.09,0,0,1,.14,2.52c-.1,3.26-1,7.36-3.09,13.72l-.2-.06c2.06-6.34,3-10.43,3.08-13.67a13.81,13.81,0,0,0-.16-2.52,3.39,3.39,0,0,1-.64-.06c-2.19-.32-3.2-1.32-3.42-2.14a1.41,1.41,0,0,1,.53-1.52,1.46,1.46,0,0,1,1.6-.1c.86.43,1.74,1.58,2.12,3.61a11.12,11.12,0,0,0,4.69-1,4.56,4.56,0,0,1-.36-.9,3.63,3.63,0,0,1,.58-3.63,1.51,1.51,0,0,1,2.56.83,3.64,3.64,0,0,1-1.66,3.28,4.77,4.77,0,0,1-.83.52,11.54,11.54,0,0,0,3.2,3.59c1.49-1.42,2.88-1.84,3.83-1.68a1.45,1.45,0,0,1,1.24,1,1.42,1.42,0,0,1-.46,1.55c-.66.53-2.07.74-4-.28a6.16,6.16,0,0,1-.55-.33,12.84,12.84,0,0,0-1.61,1.94C331.61,204.71,330,208.56,327.89,214.9Zm7.31-15a4.76,4.76,0,0,0,.49.28c1.87,1,3.18.8,3.79.31a1.2,1.2,0,0,0,.39-1.32,1.24,1.24,0,0,0-1.07-.86C338,198.21,336.64,198.6,335.2,199.94Zm-10.82-6.3a1.16,1.16,0,0,0-1.13.17,1.19,1.19,0,0,0-.46,1.3c.2.75,1.16,1.67,3.25,2a5,5,0,0,0,.56.06c-.38-1.93-1.22-3-2-3.41Zm8.83-2.21a1.27,1.27,0,0,0-1.32.32,3.53,3.53,0,0,0-.52,3.42,5.08,5.08,0,0,0,.34.86,4.7,4.7,0,0,0,.79-.5,3.49,3.49,0,0,0,1.58-3.07A1.26,1.26,0,0,0,333.21,191.43Z" style="fill:#455a64"></path></g><g id="freepik--bulb--inject-119"><g id="freepik--socket--inject-119"><path d="M321.45,239.69c-1.58.22-2.37-.8-1.77-2.28a5.54,5.54,0,0,1,3.95-3.06c1.58-.22,2.37.8,1.77,2.28A5.51,5.51,0,0,1,321.45,239.69Z" style="fill:#263238"></path><path d="M325.59,235.5l-.46.35a1.73,1.73,0,0,0-1-.12,4.44,4.44,0,0,0-3.21,2.49,1.78,1.78,0,0,0-.14,1l-.45.35,1.16.42h0a1.88,1.88,0,0,0,.87,0,4.48,4.48,0,0,0,3.21-2.49,2,2,0,0,0,.15-.85h0Z" style="fill:#263238"></path><path d="M319.93,239.69c-2.33.32-3.5-1.19-2.61-3.37a8.18,8.18,0,0,1,5.85-4.52c2.34-.32,3.51,1.19,2.61,3.37A8.14,8.14,0,0,1,319.93,239.69Z" style="fill:#455a64"></path><path d="M319.4,239.23c-2.42.33-3.63-1.24-2.7-3.5a8.47,8.47,0,0,1,6.06-4.69c2.43-.33,3.64,1.24,2.71,3.5A8.5,8.5,0,0,1,319.4,239.23Z" style="fill:#37474f"></path><path d="M318.85,238.68c-2.48.33-3.72-1.27-2.77-3.59a8.7,8.7,0,0,1,6.22-4.81c2.48-.33,3.73,1.28,2.77,3.59A8.69,8.69,0,0,1,318.85,238.68Z" style="fill:#455a64"></path><path d="M318.31,238.13c-2.55.34-3.82-1.31-2.85-3.68a8.93,8.93,0,0,1,6.38-4.93c2.54-.34,3.81,1.31,2.84,3.68A8.93,8.93,0,0,1,318.31,238.13Z" style="fill:#37474f"></path><path d="M317.76,237.58c-2.61.35-3.91-1.34-2.91-3.77a9.12,9.12,0,0,1,6.52-5c2.61-.36,3.91,1.33,2.92,3.77A9.14,9.14,0,0,1,317.76,237.58Z" style="fill:#455a64"></path><path d="M317.21,237c-2.67.36-4-1.37-3-3.86a9.32,9.32,0,0,1,6.68-5.16c2.67-.36,4,1.37,3,3.86A9.32,9.32,0,0,1,317.21,237Z" style="fill:#37474f"></path></g><path d="M322.12,226.26a3.11,3.11,0,0,0-3-.9,9.79,9.79,0,0,0-7,5.4,3.11,3.11,0,0,0,.11,3.14l1.3,1.68a3.12,3.12,0,0,0,3,.9,9.78,9.78,0,0,0,7-5.41,3.11,3.11,0,0,0-.11-3.13Z" style="fill:#FF9914"></path><path d="M291.1,196.33a18.79,18.79,0,0,0-3.38,26.35c9.12,11.8,20.37,6.24,24,11a3.2,3.2,0,0,0,3.12.93,10.14,10.14,0,0,0,7.25-5.6,3.23,3.23,0,0,0-.12-3.26h0c-3.67-4.76,4.55-14.24-4.56-26A18.79,18.79,0,0,0,291.1,196.33Z" style="fill:#fff"></path><path d="M314.15,234.93a3.13,3.13,0,0,1-2.59-1.09c-1.36-1.76-3.83-2-7-2.4-5.1-.57-11.44-1.29-17.09-8.6a19.05,19.05,0,0,1,30.16-23.29c5.64,7.31,4.73,13.62,4,18.7-.44,3.12-.8,5.58.56,7.34a3.46,3.46,0,0,1,.15,3.52,10.43,10.43,0,0,1-7.46,5.76A5.3,5.3,0,0,1,314.15,234.93Zm-22.89-38.39h0a18.51,18.51,0,0,0-3.33,26c5.51,7.13,11.73,7.84,16.73,8.4,3.12.36,5.82.66,7.31,2.6a3,3,0,0,0,2.88.83,9.87,9.87,0,0,0,7-5.44,3,3,0,0,0-.08-3c-1.5-1.93-1.11-4.62-.67-7.73.72-5,1.61-11.18-3.9-18.31A18.55,18.55,0,0,0,291.26,196.54Z" style="fill:#455a64"></path><path d="M315.24,233.84c-2.43.32-3.64-1.25-2.71-3.51a8.45,8.45,0,0,1,6.07-4.68c2.42-.33,3.63,1.24,2.7,3.5A8.48,8.48,0,0,1,315.24,233.84Z" style="fill:#f5f5f5"></path><path d="M321.6,228a4,4,0,0,1-.3,1.11,8.48,8.48,0,0,1-6.06,4.69,4.49,4.49,0,0,1-1.16,0,4.19,4.19,0,0,1,.3-1.11,8.46,8.46,0,0,1,6.07-4.69A3.69,3.69,0,0,1,321.6,228Z" style="fill:#FF9914;opacity:0.25"></path><path d="M321.6,228a4,4,0,0,1-.3,1.11,8.48,8.48,0,0,1-6.06,4.69,4.49,4.49,0,0,1-1.16,0,4.19,4.19,0,0,1,.3-1.11,8.46,8.46,0,0,1,6.07-4.69A3.69,3.69,0,0,1,321.6,228Z" style="fill:#ebebeb"></path><path d="M319.52,206.37a1.47,1.47,0,0,0-1.88-.44,1.53,1.53,0,0,0-.55,1.77,2.09,2.09,0,0,0,1.18,1.22,1.21,1.21,0,0,0,1.54-.71A2,2,0,0,0,319.52,206.37Zm-2-1.92a2.75,2.75,0,0,0-.27-2.33,14.36,14.36,0,0,0-8.45-7c-2-.7-4.36-.73-5.53,1.36a3.27,3.27,0,0,0-.28.72,2.75,2.75,0,0,0,.85,2.58c1.32,1.28,3.39,1.11,5.06,1.6a16.37,16.37,0,0,1,5.07,2.56,9.74,9.74,0,0,0,1.69,1.16A1.46,1.46,0,0,0,317.55,204.45Z" style="fill:#f5f5f5"></path><path d="M319.8,229.88l-.18.14c-4.08-5.29-6.34-8.85-7.53-11.89a12.67,12.67,0,0,1-.71-2.41,11.47,11.47,0,0,1-4.83.6,11.6,11.6,0,0,1-1.81,4.53,12.89,12.89,0,0,1,2.16,1.29c2.64,1.93,5.51,5,9.59,10.29l-.17.14c-4.07-5.28-6.93-8.34-9.55-10.25a12.89,12.89,0,0,0-2.16-1.29,5.06,5.06,0,0,1-.41.49c-1.51,1.63-2.9,1.91-3.7,1.63a1.45,1.45,0,0,1-.13-2.68c.83-.47,2.28-.55,4.17.29a11.27,11.27,0,0,0,1.79-4.46,5.26,5.26,0,0,1-.94-.21,3.61,3.61,0,0,1-2.67-2.53,1.49,1.49,0,0,1,2.12-1.64,3.62,3.62,0,0,1,1.78,3.22,5.53,5.53,0,0,1,0,1,11.3,11.3,0,0,0,4.76-.61c-.32-2,.12-3.42.78-4.11a1.45,1.45,0,0,1,1.54-.45,1.43,1.43,0,0,1,1,1.25c.07.85-.56,2.13-2.51,3.17a4.43,4.43,0,0,1-.58.27,12.45,12.45,0,0,0,.7,2.42C313.48,221.07,315.72,224.61,319.8,229.88Zm-8.24-14.47a4,4,0,0,0,.51-.24c1.86-1,2.45-2.18,2.39-3a1.18,1.18,0,0,0-.87-1.06,1.22,1.22,0,0,0-1.31.39C311.68,212.16,311.26,213.47,311.56,215.41Zm-11.31,5.39a1.23,1.23,0,0,0,.32,2.14c.74.26,2,0,3.47-1.57a5.12,5.12,0,0,0,.36-.43c-1.8-.78-3.18-.7-3.93-.28A1.64,1.64,0,0,0,300.25,220.8Zm3.16-8.54a1.26,1.26,0,0,0-.48,1.26,3.54,3.54,0,0,0,2.53,2.37,5.79,5.79,0,0,0,.9.2,4.34,4.34,0,0,0,0-.93,3.53,3.53,0,0,0-1.65-3A1.23,1.23,0,0,0,303.41,212.26Z" style="fill:#455a64"></path></g><g id="freepik--bulb--inject-119"><g id="freepik--socket--inject-119"><path d="M297.72,248.5c.24-1.58,1.44-2.06,2.69-1.06a5.49,5.49,0,0,1,1.83,4.65c-.23,1.57-1.43,2-2.68,1.06A5.55,5.55,0,0,1,297.72,248.5Z" style="fill:#263238"></path><path d="M300.59,253.64l-.21-.53a1.86,1.86,0,0,0,.41-1,4.48,4.48,0,0,0-1.5-3.78,1.76,1.76,0,0,0-.94-.42l-.22-.53-.72,1h0a1.76,1.76,0,0,0-.3.81A4.5,4.5,0,0,0,298.6,253a1.9,1.9,0,0,0,.78.39h0Z" style="fill:#263238"></path><path d="M298.15,247c.35-2.33,2.13-3,4-1.56a8.2,8.2,0,0,1,2.7,6.89c-.35,2.33-2.13,3-4,1.55A8.15,8.15,0,0,1,298.15,247Z" style="fill:#455a64"></path><path d="M298.74,246.66c.37-2.42,2.21-3.14,4.12-1.61a8.45,8.45,0,0,1,2.8,7.13c-.36,2.42-2.21,3.14-4.12,1.62A8.5,8.5,0,0,1,298.74,246.66Z" style="fill:#37474f"></path><path d="M299.42,246.29c.38-2.48,2.27-3.22,4.23-1.66a8.71,8.71,0,0,1,2.87,7.32c-.38,2.48-2.27,3.22-4.23,1.66A8.71,8.71,0,0,1,299.42,246.29Z" style="fill:#455a64"></path><path d="M300.11,245.92c.38-2.54,2.32-3.3,4.33-1.7a8.93,8.93,0,0,1,2.94,7.5c-.39,2.54-2.33,3.3-4.33,1.7A8.89,8.89,0,0,1,300.11,245.92Z" style="fill:#37474f"></path><path d="M300.79,245.55c.39-2.6,2.38-3.38,4.43-1.74a9.08,9.08,0,0,1,3,7.68c-.39,2.6-2.38,3.38-4.43,1.74A9.12,9.12,0,0,1,300.79,245.55Z" style="fill:#455a64"></path><path d="M301.47,245.17c.4-2.66,2.44-3.45,4.54-1.77a9.34,9.34,0,0,1,3.08,7.86c-.4,2.66-2.43,3.45-4.54,1.77A9.33,9.33,0,0,1,301.47,245.17Z" style="fill:#37474f"></path></g><path d="M310.43,252.9a3.09,3.09,0,0,0,1.71-2.63,9.78,9.78,0,0,0-3.23-8.23,3.13,3.13,0,0,0-3-.77l-2,.78a3.08,3.08,0,0,0-1.7,2.63,9.78,9.78,0,0,0,3.22,8.23,3.09,3.09,0,0,0,3,.77Z" style="fill:#FF9914"></path><path d="M347.86,231.53a18.8,18.8,0,0,0-24.35-10.64c-13.88,5.44-11.7,17.8-17.3,20a3.23,3.23,0,0,0-1.77,2.73,10.16,10.16,0,0,0,3.35,8.54,3.21,3.21,0,0,0,3.15.8h0c5.6-2.2,12.4,8.36,26.28,2.92A18.8,18.8,0,0,0,347.86,231.53Z" style="fill:#fff"></path><path d="M329.35,257.73c-4.5,0-8.05-1.61-11.11-3-2.87-1.3-5.13-2.33-7.2-1.52a3.49,3.49,0,0,1-3.42-.84,10.45,10.45,0,0,1-3.44-8.78,3.49,3.49,0,0,1,1.94-2.94c2.07-.81,3-3.1,4.25-6,2-4.73,4.45-10.61,13.05-14a19,19,0,0,1,13.9,35.47A21.71,21.71,0,0,1,329.35,257.73Zm-16.76-5.34c1.79,0,3.72.88,5.87,1.86,4.58,2.08,10.27,4.67,18.67,1.38a18.54,18.54,0,0,0,10.48-24h0a18.53,18.53,0,0,0-24-10.48c-8.39,3.28-10.81,9.06-12.76,13.7-1.21,2.9-2.26,5.4-4.54,6.29a3,3,0,0,0-1.61,2.53A9.89,9.89,0,0,0,308,252a3,3,0,0,0,2.9.76A4.78,4.78,0,0,1,312.59,252.39Z" style="fill:#455a64"></path><path d="M305.09,244.17c.36-2.41,2.21-3.14,4.12-1.61a8.49,8.49,0,0,1,2.8,7.14c-.37,2.41-2.21,3.14-4.12,1.61A8.46,8.46,0,0,1,305.09,244.17Z" style="fill:#f5f5f5"></path><path d="M308.87,251.91a3.87,3.87,0,0,1-1-.6,8.46,8.46,0,0,1-2.8-7.14,3.75,3.75,0,0,1,.32-1.1,4.12,4.12,0,0,1,1,.59,8.47,8.47,0,0,1,2.8,7.14A3.91,3.91,0,0,1,308.87,251.91Z" style="fill:#FF9914;opacity:0.25"></path><path d="M308.87,251.91a3.87,3.87,0,0,1-1-.6,8.46,8.46,0,0,1-2.8-7.14,3.75,3.75,0,0,1,.32-1.1,4.12,4.12,0,0,1,1,.59,8.47,8.47,0,0,1,2.8,7.14A3.91,3.91,0,0,1,308.87,251.91Z" style="fill:#ebebeb"></path><path d="M330.25,256a1.47,1.47,0,0,0,.95-1.69,1.54,1.54,0,0,0-1.55-1,2,2,0,0,0-1.49.8,1.2,1.2,0,0,0,.25,1.67A2,2,0,0,0,330.25,256Zm2.39-1.35A2.79,2.79,0,0,0,335,255a14.39,14.39,0,0,0,9.09-6.15c1.23-1.73,1.92-4,.24-5.68a2.83,2.83,0,0,0-.61-.47,2.75,2.75,0,0,0-2.72.08c-1.59.91-2,2.95-2.95,4.41a16.13,16.13,0,0,1-3.88,4.15,9.88,9.88,0,0,0-1.58,1.29A1.48,1.48,0,0,0,332.64,254.64Z" style="fill:#f5f5f5"></path><path d="M307.6,249.66l-.08-.2c6.23-2.44,10.27-3.61,13.52-3.9a12.43,12.43,0,0,1,2.52,0,11.65,11.65,0,0,1,.77-4.81,11.61,11.61,0,0,1-3.83-3,13.06,13.06,0,0,1-1.85,1.71c-2.59,2-6.34,3.89-12.57,6.33l-.08-.21c6.21-2.43,9.95-4.31,12.52-6.29a12.44,12.44,0,0,0,1.84-1.72A6.18,6.18,0,0,1,320,237c-1.13-1.9-1-3.31-.52-4a1.42,1.42,0,0,1,1.52-.56,1.45,1.45,0,0,1,1.09,1.18c.21.93-.12,2.34-1.45,3.92a11.24,11.24,0,0,0,3.78,3,4.77,4.77,0,0,1,.46-.85,3.66,3.66,0,0,1,3.18-1.86,1.5,1.5,0,0,1,1.26.95,1.48,1.48,0,0,1-.28,1.55,3.62,3.62,0,0,1-3.59.8,4.53,4.53,0,0,1-.92-.31,11.26,11.26,0,0,0-.75,4.75c2.05.26,3.25,1.07,3.73,1.9a1.45,1.45,0,0,1,0,1.6,1.42,1.42,0,0,1-1.49.63c-.83-.17-1.88-1.13-2.34-3.3a5.93,5.93,0,0,1-.1-.63,12.43,12.43,0,0,0-2.52,0C317.83,246.07,313.81,247.23,307.6,249.66Zm16.2-3.85a5,5,0,0,0,.09.56c.44,2.06,1.41,3,2.17,3.12a1.19,1.19,0,0,0,1.27-.53,1.24,1.24,0,0,0,0-1.37C326.89,246.84,325.75,246.07,323.8,245.81Zm-2-12.36a1.16,1.16,0,0,0-.85-.76,1.19,1.19,0,0,0-1.29.46c-.45.64-.55,2,.53,3.77a4.76,4.76,0,0,0,.31.47c1.26-1.51,1.57-2.86,1.38-3.69A1.83,1.83,0,0,0,321.8,233.45Zm7.32,5.42a1.27,1.27,0,0,0-1.08-.81,3.53,3.53,0,0,0-3,1.76,4.44,4.44,0,0,0-.45.82,6,6,0,0,0,.88.29,3.54,3.54,0,0,0,3.39-.73A1.28,1.28,0,0,0,329.12,238.87Z" style="fill:#455a64"></path></g><path d="M298.55,196.08a.78.78,0,0,0-.73.83l4.09,65.3a.79.79,0,0,0,.78.73h.05a.78.78,0,0,0,.73-.83l-4.09-65.3A.73.73,0,0,0,298.55,196.08Zm-12.32-4.63a.79.79,0,0,0-.7.86l6.83,65.3a.78.78,0,0,0,.77.71h.09a.78.78,0,0,0,.69-.86l-6.82-65.3A.79.79,0,0,0,286.23,191.45Zm26.09,6.92h0a.79.79,0,0,0-.77.8l1.37,65.3a.77.77,0,0,0,.78.77h0a.79.79,0,0,0,.77-.8l-1.36-65.3A.79.79,0,0,0,312.32,198.37ZM275.76,183.3a.78.78,0,0,0-.66.89l9.55,65.3a.78.78,0,0,0,.77.67h.12a.78.78,0,0,0,.66-.88L276.65,184A.81.81,0,0,0,275.76,183.3Zm87.35,0a.81.81,0,0,0-.89.67l-9.55,65.3a.78.78,0,0,0,.66.88h.11a.79.79,0,0,0,.78-.67l9.55-65.3A.79.79,0,0,0,363.11,183.3Zm-10.47,8.15a.78.78,0,0,0-.86.7L345,257.45a.77.77,0,0,0,.69.86h.09a.78.78,0,0,0,.77-.71l6.83-65.3A.79.79,0,0,0,352.64,191.45Zm-12.32,4.63a.75.75,0,0,0-.83.73l-4.1,65.3a.8.8,0,0,0,.74.83h.05a.79.79,0,0,0,.78-.73l4.09-65.3A.78.78,0,0,0,340.32,196.08Zm-13.76,2.29a.73.73,0,0,0-.8.77l-1.36,65.3a.78.78,0,0,0,.76.8h0a.78.78,0,0,0,.78-.77l1.37-65.3A.79.79,0,0,0,326.56,198.37Z" style="fill:#e0e0e0"></path><path d="M298.55,196.08a.78.78,0,0,0-.73.83l4.09,65.3a.79.79,0,0,0,.78.73h.05a.78.78,0,0,0,.73-.83l-4.09-65.3A.73.73,0,0,0,298.55,196.08Zm-12.32-4.63a.79.79,0,0,0-.7.86l6.83,65.3a.78.78,0,0,0,.77.71h.09a.78.78,0,0,0,.69-.86l-6.82-65.3A.79.79,0,0,0,286.23,191.45Zm26.09,6.92h0a.79.79,0,0,0-.77.8l1.37,65.3a.77.77,0,0,0,.78.77h0a.79.79,0,0,0,.77-.8l-1.36-65.3A.79.79,0,0,0,312.32,198.37ZM275.76,183.3a.78.78,0,0,0-.66.89l9.55,65.3a.78.78,0,0,0,.77.67h.12a.78.78,0,0,0,.66-.88L276.65,184A.81.81,0,0,0,275.76,183.3Zm87.35,0a.81.81,0,0,0-.89.67l-9.55,65.3a.78.78,0,0,0,.66.88h.11a.79.79,0,0,0,.78-.67l9.55-65.3A.79.79,0,0,0,363.11,183.3Zm-10.47,8.15a.78.78,0,0,0-.86.7L345,257.45a.77.77,0,0,0,.69.86h.09a.78.78,0,0,0,.77-.71l6.83-65.3A.79.79,0,0,0,352.64,191.45Zm-12.32,4.63a.75.75,0,0,0-.83.73l-4.1,65.3a.8.8,0,0,0,.74.83h.05a.79.79,0,0,0,.78-.73l4.09-65.3A.78.78,0,0,0,340.32,196.08Zm-13.76,2.29a.73.73,0,0,0-.8.77l-1.36,65.3a.78.78,0,0,0,.76.8h0a.78.78,0,0,0,.78-.77l1.37-65.3A.79.79,0,0,0,326.56,198.37Z" style="opacity:0.1"></path><g id="freepik--Bin--inject-119"><path d="M270.43,171.42a18.54,18.54,0,0,0,3,6.9,32.81,32.81,0,0,0,11.15,9.9c19.26,11.11,50.52,11.11,69.8,0a33,33,0,0,0,11.14-9.9,19,19,0,0,0,2.95-6.9h0c1.71-8.36-3-17.09-14.11-23.51-19.28-11.13-50.54-11.13-69.8,0C273.42,154.33,268.72,163.06,270.43,171.42Zm19.91,13.43c-6.19-3.6-10-8-11.41-12.66,1.38-5,5.19-9.77,11.41-13.63,16.07-10,42.11-10,58.18,0,6.22,3.86,10,8.65,11.41,13.64-1.41,4.63-5.23,9.07-11.43,12.65C332.45,194.13,306.41,194.13,290.34,184.85Z" style="fill:#FF9914"></path><path d="M270.43,171.42a18.54,18.54,0,0,0,3,6.9,32.81,32.81,0,0,0,11.15,9.9c19.26,11.11,50.52,11.11,69.8,0a33,33,0,0,0,11.14-9.9,19,19,0,0,0,2.95-6.9h0c1.71-8.36-3-17.09-14.11-23.51-19.28-11.13-50.54-11.13-69.8,0C273.42,154.33,268.72,163.06,270.43,171.42Zm19.91,13.43c-6.19-3.6-10-8-11.41-12.66,1.38-5,5.19-9.77,11.41-13.63,16.07-10,42.11-10,58.18,0,6.22,3.86,10,8.65,11.41,13.64-1.41,4.63-5.23,9.07-11.43,12.65C332.45,194.13,306.41,194.13,290.34,184.85Z" style="fill:#fff;opacity:0.45"></path><path d="M273.39,178.32a32.94,32.94,0,0,0,11.14,9.89c19.28,11.13,50.53,11.13,69.81,0a32.94,32.94,0,0,0,11.14-9.89,19,19,0,0,0,2.95-6.9h0l-2.19,8.71c-1,6.06-5.51,12-13.56,16.59-18.37,10.6-48.14,10.6-66.51,0-7.93-4.58-12.44-10.41-13.52-16.38l-.11-.77-2.12-8.15A18.71,18.71,0,0,0,273.39,178.32Z" style="fill:#FF9914"></path><path d="M273.39,178.32a32.94,32.94,0,0,0,11.14,9.89c19.28,11.13,50.53,11.13,69.81,0a32.94,32.94,0,0,0,11.14-9.89,19,19,0,0,0,2.95-6.9h0l-2.19,8.71c-1,6.06-5.51,12-13.56,16.59-18.37,10.6-48.14,10.6-66.51,0-7.93-4.58-12.44-10.41-13.52-16.38l-.11-.77-2.12-8.15A18.71,18.71,0,0,0,273.39,178.32Z" style="fill:#fff;opacity:0.2"></path><path d="M278.52,170.47c.11.57.24,1.14.41,1.72,1.38-5,5.19-9.77,11.41-13.63,16.07-10,42.11-10,58.18,0,6.22,3.86,10,8.65,11.41,13.64a13.35,13.35,0,0,0,.42-1.74c1.19-6.85-2.75-13.93-11.85-19.19-16.05-9.28-42.09-9.28-58.16,0C281.26,156.53,277.32,163.61,278.52,170.47Z" style="fill:#FF9914"></path><path d="M278.52,170.47c.11.57.24,1.14.41,1.72,1.38-5,5.19-9.77,11.41-13.63,16.07-10,42.11-10,58.18,0,6.22,3.86,10,8.65,11.41,13.64a13.35,13.35,0,0,0,.42-1.74c1.19-6.85-2.75-13.93-11.85-19.19-16.05-9.28-42.09-9.28-58.16,0C281.26,156.53,277.32,163.61,278.52,170.47Z" style="fill:#fff;opacity:0.2"></path></g></g></g><g id="freepik--light-bulb--inject-119"><g id="freepik--bulb--inject-119"><g id="freepik--socket--inject-119"><path d="M287.25,167.61c-1.58.22-2.37-.81-1.77-2.28a5.53,5.53,0,0,1,3.95-3.07c1.58-.21,2.37.81,1.77,2.28A5.53,5.53,0,0,1,287.25,167.61Z" style="fill:#263238"></path><path d="M291.39,163.41l-.46.36a1.65,1.65,0,0,0-1-.13,4.49,4.49,0,0,0-3.21,2.49,1.78,1.78,0,0,0-.14,1l-.45.35,1.16.42h0a2,2,0,0,0,.87.06,4.52,4.52,0,0,0,3.21-2.5,2,2,0,0,0,.15-.85h0Z" style="fill:#263238"></path><path d="M285.73,167.61c-2.33.31-3.5-1.2-2.6-3.38a8.17,8.17,0,0,1,5.84-4.52c2.34-.31,3.51,1.2,2.61,3.38A8.17,8.17,0,0,1,285.73,167.61Z" style="fill:#455a64"></path><path d="M285.2,167.14c-2.42.33-3.63-1.24-2.7-3.5a8.48,8.48,0,0,1,6.06-4.69c2.43-.32,3.64,1.25,2.71,3.51A8.45,8.45,0,0,1,285.2,167.14Z" style="fill:#37474f"></path><path d="M284.65,166.59c-2.48.34-3.72-1.27-2.77-3.59a8.67,8.67,0,0,1,6.22-4.8c2.48-.34,3.73,1.27,2.78,3.59A8.68,8.68,0,0,1,284.65,166.59Z" style="fill:#455a64"></path><path d="M284.11,166c-2.55.35-3.82-1.3-2.85-3.68a8.91,8.91,0,0,1,6.38-4.92c2.54-.34,3.82,1.3,2.84,3.68A8.9,8.9,0,0,1,284.11,166Z" style="fill:#37474f"></path><path d="M283.56,165.49c-2.61.35-3.91-1.33-2.91-3.77a9.12,9.12,0,0,1,6.52-5c2.61-.35,3.91,1.34,2.92,3.77A9.12,9.12,0,0,1,283.56,165.49Z" style="fill:#455a64"></path><path d="M283,164.94c-2.67.36-4-1.37-3-3.86a9.32,9.32,0,0,1,6.68-5.16c2.67-.36,4,1.37,3,3.86A9.32,9.32,0,0,1,283,164.94Z" style="fill:#37474f"></path></g><path d="M287.92,154.17a3.11,3.11,0,0,0-3-.89,9.74,9.74,0,0,0-7,5.4,3.11,3.11,0,0,0,.11,3.13l1.3,1.68a3.1,3.1,0,0,0,3,.9,9.79,9.79,0,0,0,7-5.4,3.13,3.13,0,0,0-.11-3.14Z" style="fill:#FF9914"></path><path d="M256.9,124.24a18.79,18.79,0,0,0-3.38,26.35c9.12,11.81,20.37,6.24,24,11a3.22,3.22,0,0,0,3.12.94,10.15,10.15,0,0,0,7.25-5.61,3.21,3.21,0,0,0-.11-3.25h0c-3.68-4.76,4.55-14.24-4.57-26A18.8,18.8,0,0,0,256.9,124.24Z" style="fill:#fff"></path><path d="M280,162.84a3.13,3.13,0,0,1-2.59-1.09c-1.36-1.76-3.83-2-7-2.39-5.1-.58-11.44-1.3-17.09-8.6a19.06,19.06,0,0,1,30.16-23.3c5.64,7.31,4.73,13.63,4,18.7-.45,3.12-.81,5.59.55,7.35a3.42,3.42,0,0,1,.15,3.51,10.44,10.44,0,0,1-7.46,5.77A7.09,7.09,0,0,1,280,162.84Zm-22.89-38.39h0a18.53,18.53,0,0,0-3.33,26c5.51,7.14,11.73,7.84,16.73,8.41,3.12.35,5.82.66,7.31,2.59a3,3,0,0,0,2.88.83,9.85,9.85,0,0,0,7.05-5.44,3,3,0,0,0-.08-3c-1.5-1.94-1.11-4.63-.66-7.74.71-5,1.6-11.17-3.91-18.31A18.56,18.56,0,0,0,257.06,124.45Z" style="fill:#455a64"></path><path d="M281,161.75c-2.43.33-3.64-1.24-2.71-3.5a8.48,8.48,0,0,1,6.07-4.69c2.42-.33,3.63,1.24,2.7,3.5A8.48,8.48,0,0,1,281,161.75Z" style="fill:#f5f5f5"></path><path d="M287.4,156a3.93,3.93,0,0,1-.3,1.11,8.48,8.48,0,0,1-6.06,4.69,3.75,3.75,0,0,1-1.16,0,4.4,4.4,0,0,1,.3-1.11,8.48,8.48,0,0,1,6.07-4.69A4.42,4.42,0,0,1,287.4,156Z" style="fill:#FF9914;opacity:0.25"></path><path d="M287.4,156a3.93,3.93,0,0,1-.3,1.11,8.48,8.48,0,0,1-6.06,4.69,3.75,3.75,0,0,1-1.16,0,4.4,4.4,0,0,1,.3-1.11,8.48,8.48,0,0,1,6.07-4.69A4.42,4.42,0,0,1,287.4,156Z" style="fill:#ebebeb"></path><path d="M285.32,134.29a1.46,1.46,0,0,0-1.88-.44,1.53,1.53,0,0,0-.55,1.77,2.07,2.07,0,0,0,1.18,1.21,1.21,1.21,0,0,0,1.54-.71A1.94,1.94,0,0,0,285.32,134.29Zm-2-1.92a2.78,2.78,0,0,0-.27-2.34,14.4,14.4,0,0,0-8.45-7c-2-.69-4.36-.72-5.52,1.37a3.2,3.2,0,0,0-.29.71,2.77,2.77,0,0,0,.85,2.59c1.32,1.27,3.4,1.1,5.06,1.6a16,16,0,0,1,5.07,2.56,9.16,9.16,0,0,0,1.69,1.15A1.45,1.45,0,0,0,283.35,132.37Z" style="fill:#f5f5f5"></path><path d="M285.6,157.8l-.17.13c-4.09-5.29-6.35-8.84-7.54-11.88a13.53,13.53,0,0,1-.71-2.42,11.64,11.64,0,0,1-4.83.61,11.56,11.56,0,0,1-1.81,4.52,13,13,0,0,1,2.16,1.3c2.64,1.92,5.51,5,9.6,10.29l-.18.13c-4.07-5.27-6.93-8.34-9.55-10.25a12.89,12.89,0,0,0-2.16-1.29,5.21,5.21,0,0,1-.41.5c-1.51,1.62-2.9,1.9-3.7,1.62a1.43,1.43,0,0,1-1-1.3,1.46,1.46,0,0,1,.83-1.38c.83-.47,2.28-.54,4.17.29a11.44,11.44,0,0,0,1.8-4.46,4.51,4.51,0,0,1-.95-.2,3.63,3.63,0,0,1-2.67-2.54,1.48,1.48,0,0,1,.55-1.47,1.51,1.51,0,0,1,1.57-.17,3.63,3.63,0,0,1,1.78,3.23,4.59,4.59,0,0,1,0,1,11.14,11.14,0,0,0,4.76-.61c-.32-2,.12-3.42.78-4.11a1.46,1.46,0,0,1,2.56.81c.07.84-.56,2.12-2.51,3.17a6.28,6.28,0,0,1-.58.27,13.66,13.66,0,0,0,.7,2.42C279.28,149,281.52,152.52,285.6,157.8Zm-8.24-14.47.51-.24c1.86-1,2.45-2.19,2.39-3a1.2,1.2,0,0,0-.87-1.06,1.24,1.24,0,0,0-1.31.39C277.48,140.07,277.06,141.38,277.36,143.33Zm-11.31,5.38a1.23,1.23,0,0,0,.32,2.14c.74.26,2,0,3.47-1.56a5.28,5.28,0,0,0,.36-.44c-1.8-.77-3.18-.7-3.93-.28A1.64,1.64,0,0,0,266.05,148.71Zm3.16-8.54a1.28,1.28,0,0,0-.48,1.27,3.53,3.53,0,0,0,2.53,2.36,4.77,4.77,0,0,0,.91.2,5,5,0,0,0,0-.93,3.54,3.54,0,0,0-1.65-3A1.27,1.27,0,0,0,269.21,140.17Z" style="fill:#455a64"></path></g></g><g id="freepik--Plant--inject-119"><g id="freepik--Plants--inject-119"><g id="freepik--Pot--inject-119"><g style="opacity:0.30000000000000004"><path d="M400.82,283.06c-8,4.6-8,12.07,0,16.67s20.9,4.6,28.87,0,8-12.07,0-16.67S408.79,278.46,400.82,283.06Z" style="fill:#FF9914"></path></g><path d="M425.66,293.19c5.57-5.68,8.84-19.87,3.41-24.37H401.44c-5.43,4.5-2.16,18.68,3.4,24.36a1.21,1.21,0,0,0,.16.16c.06.06.12.13.19.19s.32.3.5.45l.13.1.42.32c.24.17.48.32.72.46,4.58,2.64,12,2.64,16.59,0h0c.24-.14.48-.3.72-.47a4,4,0,0,0,.39-.29l.17-.13c.17-.14.33-.29.48-.43l.23-.22Z" style="fill:#37474f"></path><path d="M403.84,267c-6.3,3.64-6.3,9.54,0,13.18s16.53,3.64,22.83,0,6.31-9.54,0-13.18S410.14,263.36,403.84,267Z" style="fill:#455a64"></path><path d="M406.76,268.69c-4.7,2.71-4.7,7.1,0,9.81s12.3,2.71,17,0,4.7-7.1,0-9.81S411.45,266,406.76,268.69Z" style="fill:#263238"></path><path d="M423.75,273.34c-4.69-2.71-12.3-2.71-17,0a7.81,7.81,0,0,0-2.81,2.58,7.73,7.73,0,0,0,2.81,2.58c4.69,2.71,12.3,2.71,17,0a7.76,7.76,0,0,0,2.82-2.58A7.85,7.85,0,0,0,423.75,273.34Z" style="fill:#e0e0e0"></path></g><g id="freepik--plant--inject-119"><path d="M421.79,264.09l-.35-.46a12.67,12.67,0,0,0,5.05-10.13,9.63,9.63,0,0,0-3.89-7.93l.33-.49a10.22,10.22,0,0,1,4.14,8.44A13.21,13.21,0,0,1,421.79,264.09Z" style="fill:#FF9914"></path><path d="M415.26,274.42s4.33-7.3,8.26-10.91,9.44-6.21,10.07-5.79-1.91,7.68-5.43,11S415.26,274.42,415.26,274.42Z" style="fill:#FF9914"></path><path d="M428.16,268.76c-3.11,3-10.81,5.11-12.55,5.57l18-16.61C434.21,258.13,431.68,265.4,428.16,268.76Z" style="fill:#FF9914"></path><path d="M428.16,268.76c-3.11,3-10.81,5.11-12.55,5.57l18-16.61C434.21,258.13,431.68,265.4,428.16,268.76Z" style="opacity:0.15"></path><path d="M415.26,274.65s-1.06-9,.85-14.23,5.46-8.77,6.42-8.38.81,8.41-.3,11.46S415.26,274.65,415.26,274.65Z" style="fill:#FF9914"></path><path d="M415.26,274.65s-1.06-9,.85-14.23,5.46-8.77,6.42-8.38.81,8.41-.3,11.46S415.26,274.65,415.26,274.65Z" style="opacity:0.15"></path><path d="M422.23,263.5c-1.12,3.06-7,11.15-7,11.15L422.53,252C423.5,252.44,423.34,260.45,422.23,263.5Z" style="fill:#FF9914"></path><path d="M415.35,276.73a18,18,0,0,1,10.13-8.33c7.08-2.19,9.91-1,10.17.48s-2.44,5.11-8.58,7A26.84,26.84,0,0,1,415.35,276.73Z" style="fill:#FF9914"></path><path d="M415.35,276.73a18,18,0,0,1,10.13-8.33c7.08-2.19,9.91-1,10.17.48s-2.44,5.11-8.58,7A26.84,26.84,0,0,1,415.35,276.73Z" style="opacity:0.05"></path><path d="M427.07,275.9a26.84,26.84,0,0,1-11.72.83l20.3-7.85C435.91,270.36,433.21,274,427.07,275.9Z" style="fill:#FF9914"></path><path d="M427.07,275.9a26.84,26.84,0,0,1-11.72.83l20.3-7.85C435.91,270.36,433.21,274,427.07,275.9Z" style="opacity:0.25"></path><path d="M415.28,276.72a25.33,25.33,0,0,1,7.5-9.48c5.28-4,9.61-4.34,10.33-3.54s-2.7,6.22-6.76,9A23.08,23.08,0,0,1,415.28,276.72Z" style="fill:#FF9914"></path><path d="M415.28,276.72a25.33,25.33,0,0,1,7.5-9.48c5.28-4,9.61-4.34,10.33-3.54s-2.7,6.22-6.76,9A23.08,23.08,0,0,1,415.28,276.72Z" style="fill:#fff;opacity:0.2"></path><path d="M426.35,272.68a23.08,23.08,0,0,1-11.07,4,64.15,64.15,0,0,0,17.83-13C433.82,264.51,430.41,269.92,426.35,272.68Z" style="fill:#FF9914"></path><path d="M415.26,274.42c2.75,0,6.84-2.47,9.3-5s5.64-9.35,4.09-10.93-7,2.84-9.65,6C415.62,268.45,415.26,274.42,415.26,274.42Z" style="fill:#FF9914"></path><path d="M415.26,274.42c2.75,0,6.84-2.47,9.3-5s5.64-9.35,4.09-10.93-7,2.84-9.65,6C415.62,268.45,415.26,274.42,415.26,274.42Z" style="fill:#fff;opacity:0.2"></path><path d="M424.56,269.38c-2.46,2.57-6.55,5-9.3,5l13.39-16C430.2,260,427,266.8,424.56,269.38Z" style="fill:#FF9914"></path><path d="M424.56,269.38c-2.46,2.57-6.55,5-9.3,5l13.39-16C430.2,260,427,266.8,424.56,269.38Z" style="opacity:0.15"></path><path d="M415.26,274.42s-4.34-7.3-8.26-10.91-9.44-6.21-10.07-5.79,1.9,7.68,5.42,11S415.26,274.42,415.26,274.42Z" style="fill:#FF9914"></path><path d="M402.35,268.76c3.11,3,10.82,5.11,12.55,5.57l-18-16.61C396.3,258.13,398.83,265.4,402.35,268.76Z" style="fill:#FF9914"></path><path d="M402.35,268.76c3.11,3,10.82,5.11,12.55,5.57l-18-16.61C396.3,258.13,398.83,265.4,402.35,268.76Z" style="opacity:0.15"></path><path d="M415.25,274.65s1.06-9-.85-14.23-5.46-8.77-6.42-8.38-.81,8.41.31,11.46S415.25,274.65,415.25,274.65Z" style="fill:#FF9914"></path><path d="M408.29,263.5c1.11,3.06,7,11.15,7,11.15L408,252C407,252.44,407.17,260.45,408.29,263.5Z" style="fill:#FF9914"></path><path d="M408.29,263.5c1.11,3.06,7,11.15,7,11.15L408,252C407,252.44,407.17,260.45,408.29,263.5Z" style="fill:#fff;opacity:0.2"></path><path d="M415.16,276.73A18,18,0,0,0,405,268.4c-7.08-2.19-9.91-1-10.17.48s2.44,5.11,8.58,7A26.84,26.84,0,0,0,415.16,276.73Z" style="fill:#FF9914"></path><path d="M415.16,276.73A18,18,0,0,0,405,268.4c-7.08-2.19-9.91-1-10.17.48s2.44,5.11,8.58,7A26.84,26.84,0,0,0,415.16,276.73Z" style="opacity:0.05"></path><path d="M403.44,275.9a26.84,26.84,0,0,0,11.72.83l-20.3-7.85C394.6,270.36,397.3,274,403.44,275.9Z" style="fill:#FF9914"></path><path d="M403.44,275.9a26.84,26.84,0,0,0,11.72.83l-20.3-7.85C394.6,270.36,397.3,274,403.44,275.9Z" style="opacity:0.25"></path><path d="M415.23,276.72a25.37,25.37,0,0,0-7.49-9.48c-5.29-4-9.62-4.34-10.33-3.54s2.69,6.22,6.75,9A23.08,23.08,0,0,0,415.23,276.72Z" style="fill:#FF9914"></path><path d="M415.23,276.72a25.37,25.37,0,0,0-7.49-9.48c-5.29-4-9.62-4.34-10.33-3.54s2.69,6.22,6.75,9A23.08,23.08,0,0,0,415.23,276.72Z" style="fill:#fff;opacity:0.2"></path><path d="M404.16,272.68a23.08,23.08,0,0,0,11.07,4,64,64,0,0,1-17.82-13C396.69,264.51,400.1,269.92,404.16,272.68Z" style="fill:#FF9914"></path><path d="M415.26,274.42c-2.76,0-6.84-2.47-9.31-5s-5.64-9.35-4.09-10.93,7,2.84,9.66,6C414.9,268.45,415.26,274.42,415.26,274.42Z" style="fill:#FF9914"></path><path d="M406,269.38c2.47,2.57,6.55,5,9.31,5l-13.4-16C400.31,260,403.48,266.8,406,269.38Z" style="fill:#FF9914"></path><path d="M406,269.38c2.47,2.57,6.55,5,9.31,5l-13.4-16C400.31,260,403.48,266.8,406,269.38Z" style="opacity:0.15"></path><path d="M415.26,258.63c-1.16,0-3.4,3.46-3.37,9.14,0,4.54,2.24,9,3.37,9s3.34-4.41,3.36-9C418.66,262.09,416.42,258.63,415.26,258.63Z" style="fill:#FF9914"></path><path d="M415.26,258.63c-1.16,0-3.4,3.46-3.37,9.14,0,4.54,2.24,9,3.37,9s3.34-4.41,3.36-9C418.66,262.09,416.42,258.63,415.26,258.63Z" style="fill:#fff;opacity:0.2"></path><path d="M418.62,267.77c0-5.68-2.2-9.14-3.36-9.14v18.09C416.39,276.72,418.6,272.31,418.62,267.77Z" style="fill:#FF9914"></path><path d="M426.78,253.51a2.8,2.8,0,0,0,.8-1.71,1,1,0,1,0-1.52,0A2.75,2.75,0,0,0,426.78,253.51Z" style="fill:#FF9914"></path><path d="M426.78,253.51a2.8,2.8,0,0,0,.8-1.71,1,1,0,1,0-1.52,0A2.75,2.75,0,0,0,426.78,253.51Z" style="fill:#fff;opacity:0.35000000000000003"></path><path d="M427,253.59a2.74,2.74,0,0,1,.74-1.74,2.46,2.46,0,0,1,1.73-.57,2.5,2.5,0,0,1-.69,1.68A2.79,2.79,0,0,1,427,253.59Z" style="fill:#FF9914"></path><path d="M427,253.59a2.74,2.74,0,0,1,.74-1.74,2.46,2.46,0,0,1,1.73-.57,2.5,2.5,0,0,1-.69,1.68A2.79,2.79,0,0,1,427,253.59Z" style="fill:#fff;opacity:0.35000000000000003"></path><path d="M426.81,253.67a2.77,2.77,0,0,0,1.4-1.26,2.52,2.52,0,0,0,0-1.83,2.47,2.47,0,0,0-1.37,1.21A2.77,2.77,0,0,0,426.81,253.67Z" style="fill:#FF9914"></path><path d="M426.81,253.67a2.73,2.73,0,0,0,.09-1.88,1,1,0,1,0-1.42.54A2.79,2.79,0,0,0,426.81,253.67Z" style="fill:#FF9914"></path><path d="M426.81,253.67a2.73,2.73,0,0,0,.09-1.88,1,1,0,1,0-1.42.54A2.79,2.79,0,0,0,426.81,253.67Z" style="fill:#fff;opacity:0.2"></path><path d="M426.81,253.67a2.75,2.75,0,0,1,1.34-1.32,2.49,2.49,0,0,1,1.82.11,2.45,2.45,0,0,1-1.28,1.3A2.73,2.73,0,0,1,426.81,253.67Z" style="fill:#FF9914"></path><path d="M426.81,253.67a2.75,2.75,0,0,1,1.34-1.32,2.49,2.49,0,0,1,1.82.11,2.45,2.45,0,0,1-1.28,1.3A2.73,2.73,0,0,1,426.81,253.67Z" style="fill:#fff;opacity:0.2"></path><path d="M423.33,245.89a2.74,2.74,0,0,0-1.38-1.28,2.52,2.52,0,0,0-1.82.18,2.49,2.49,0,0,0,1.33,1.26A2.75,2.75,0,0,0,423.33,245.89Z" style="fill:#FF9914"></path><path d="M423.33,245.89a2.74,2.74,0,0,0-1.38-1.28,2.52,2.52,0,0,0-1.82.18,2.49,2.49,0,0,0,1.33,1.26A2.75,2.75,0,0,0,423.33,245.89Z" style="fill:#fff;opacity:0.35000000000000003"></path><path d="M423.46,245.75a2.79,2.79,0,0,1-1.43-1.23,1,1,0,1,1,1.37-.66A2.75,2.75,0,0,1,423.46,245.75Z" style="fill:#FF9914"></path><path d="M423.46,245.75a2.79,2.79,0,0,1-1.43-1.23,1,1,0,1,1,1.37-.66A2.75,2.75,0,0,1,423.46,245.75Z" style="fill:#fff;opacity:0.35000000000000003"></path><path d="M423.49,245.91a2.76,2.76,0,0,0-.78-1.72,2.48,2.48,0,0,0-1.74-.53,2.5,2.5,0,0,0,.73,1.67A2.77,2.77,0,0,0,423.49,245.91Z" style="fill:#FF9914"></path><path d="M423.49,245.91a2.72,2.72,0,0,0-1.76-.66,2.45,2.45,0,0,0-1.61.85,2.46,2.46,0,0,0,1.7.66A2.72,2.72,0,0,0,423.49,245.91Z" style="fill:#FF9914"></path><path d="M423.49,245.91a2.72,2.72,0,0,0-1.76-.66,2.45,2.45,0,0,0-1.61.85,2.46,2.46,0,0,0,1.7.66A2.72,2.72,0,0,0,423.49,245.91Z" style="fill:#fff;opacity:0.2"></path><path d="M423.49,245.91a2.76,2.76,0,0,1-.85-1.68,1,1,0,1,1,1.51-.09A2.76,2.76,0,0,1,423.49,245.91Z" style="fill:#FF9914"></path><path d="M423.49,245.91a2.76,2.76,0,0,1-.85-1.68,1,1,0,1,1,1.51-.09A2.76,2.76,0,0,1,423.49,245.91Z" style="fill:#fff;opacity:0.2"></path></g></g></g><g id="freepik--Pencil--inject-119"><g id="freepik--pencil--inject-119"><path id="freepik--shadow--inject-119" d="M126.14,371.23c.7,1.92,2.75,3.11,6.17,3.56L181,346.29l6.33-6.42a.49.49,0,0,0-.51-.81l-11.65,3.86Z" style="fill:#FF9914;opacity:0.30000000000000004"></path><g id="freepik--pencil--inject-119"><path d="M175.61,338.58l10.37-2a.32.32,0,0,1,.3.53l-7,8Z" style="fill:#ffa8a7"></path><path d="M186.28,337.08a.32.32,0,0,0-.3-.53l-2,.4h0a1.77,1.77,0,0,1,.83,1.65v.19Z" style="fill:#263238"></path><path d="M140.57,367.23l.85-.49,1-.58,36.8-21.11a4.72,4.72,0,0,0-.29-3.44c-.74-1.65-2.17-2.95-3.35-3l-36.77,21.09-2,1.13C138.18,360.15,141.88,366.55,140.57,367.23Z" style="fill:#FF9914"></path><path d="M143.81,365.39l1.89-1.09c.56-.3.24-1.68-.41-3.1-.87-1.88-2.57-3.71-3.31-3.32l-1.4.8-.49.3c.74-.4,2.44,1.43,3.31,3.32.62,1.36.94,2.69.47,3.05h0A.1.1,0,0,1,143.81,365.39Z" style="fill:#ebebeb"></path><path d="M144.28,365.11c1.3-.69-2.42-7.1-3.72-6.41l-1.9,1.08c1.3-.68,5,5.72,3.72,6.41Z" style="fill:#FF9914"></path><path d="M140.57,367.23l1.88-1.07c1.28-.67-2.26-6.89-3.61-6.48l-.08,0-1.88,1.1C138.18,360.15,141.88,366.55,140.57,367.23Z" style="fill:#ebebeb"></path><path d="M186.33,336.73l-.35-.18-7.53,4.12L139.54,363c-.07-.12-.13-.13-.18-.05,1.11,1.73,1.94,3.9,1.21,4.28l.85-.49,1-.58,36.8-21.11h0l7-8A.31.31,0,0,0,186.33,336.73Z" style="opacity:0.15"></path><path d="M132.62,371.78l7.95-4.55c.56-.29.25-1.65-.39-3.06-.86-1.9-2.55-3.74-3.3-3.36h0l-8,4.57c-1.58.91-.12,4.35,1.64,5.89A1.91,1.91,0,0,0,132.62,371.78Z" style="fill:#f28f8f"></path><path d="M133.1,369.31c-.46-1.79-1.91-3.55-3.24-3.92a1.29,1.29,0,0,0-1.19.16c-1.2,1.11.19,4.26,1.86,5.72a1.91,1.91,0,0,0,2.05.52C133.18,371.44,133.41,370.53,133.1,369.31Z" style="opacity:0.1"></path></g></g></g><g id="freepik--Notebook--inject-119"><g id="freepik--notebook--inject-119"><path id="freepik--shadow--inject-119" d="M240.66,284.79l-40,23.07a.63.63,0,0,0,0,1.2l48.74,28.06a2.29,2.29,0,0,0,2.07,0l39.95-23.07a.63.63,0,0,0,0-1.19l-48.74-28.07A2.27,2.27,0,0,0,240.66,284.79Z" style="fill:#FF9914;opacity:0.30000000000000004"></path><g id="freepik--notebook--inject-119"><path d="M238.91,286.84,204.6,304.9l-.71,1.11v.9a1.3,1.3,0,0,0,.71,1.11l45.21,26.1a2.55,2.55,0,0,0,2.36,0l33.54-19.36v-.9Z" style="fill:#263238"></path><path d="M251,333.52a2.4,2.4,0,0,1-1.18-.29L204.6,307.12a1.22,1.22,0,0,1,0-2.22L237.4,286l48.31,27.89-33.54,19.37A2.4,2.4,0,0,1,251,333.52Z" style="fill:#FF9914"></path><path d="M237.4,283.35,205,302.07l-.34.46V306h0a.59.59,0,0,0,.34.47l45.22,26.11a1.82,1.82,0,0,0,1.61,0l32.43-18.73v-3.48Z" style="fill:#ebebeb"></path><path d="M284.23,310.38l-.41.24-5.28,3-1,.57L251.8,329.11a1.82,1.82,0,0,1-1.61,0L205,303c-.45-.26-.45-.68,0-.93l.43-.25,32-18.47,46.43,26.8.09.06Z" style="fill:#f0f0f0"></path><path d="M251,329.3v3.48a1.6,1.6,0,0,1-.8-.19L205,306.48a.57.57,0,0,1-.33-.47v-3.48a.57.57,0,0,0,.33.47l45.22,26.11A1.6,1.6,0,0,0,251,329.3Z" style="fill:#e0e0e0"></path><path d="M284.23,309.92l-5.84,3.37-.92.53L251.8,328.64a1.76,1.76,0,0,1-1.61,0l-40.5-23.38-1-.59a10,10,0,0,1-3.27-2.85l-.08-.12a.62.62,0,0,1-.1-.24.72.72,0,0,1,.57-.82,15.35,15.35,0,0,0,3.05-1.27l0,0,28.52-16.46Z" style="fill:#fff"></path><path d="M278.18,309.51a.46.46,0,0,0,0,.87,1.67,1.67,0,0,0,1.51,0,.46.46,0,0,0,0-.87A1.67,1.67,0,0,0,278.18,309.51Z" style="opacity:0.1"></path><path d="M283,306.69a2,2,0,0,0-2,.14,6.36,6.36,0,0,0-2.54,3.66,1.44,1.44,0,0,0,.55.07,5.68,5.68,0,0,1,2.27-3.24,1.89,1.89,0,0,1,.92-.29,1.06,1.06,0,0,1,.55.15,2,2,0,0,1,.76,1.86,3.15,3.15,0,0,1,0,.44l.53.31a4.84,4.84,0,0,0,.06-.75A2.57,2.57,0,0,0,283,306.69Z" style="fill:#263238"></path><path d="M284,310.08l0,.13-.09-.06Z" style="fill:#263238"></path><path d="M273.65,306.89a.47.47,0,0,0,0,.88,1.67,1.67,0,0,0,1.51,0,.47.47,0,0,0,0-.88A1.67,1.67,0,0,0,273.65,306.89Z" style="opacity:0.1"></path><path d="M278.48,304.07a2,2,0,0,0-2,.15,6.26,6.26,0,0,0-2.54,3.65,1.44,1.44,0,0,0,.55.07,5.68,5.68,0,0,1,2.27-3.24,1.86,1.86,0,0,1,.92-.28,1.09,1.09,0,0,1,.54.14,2.05,2.05,0,0,1,.77,1.86,3.4,3.4,0,0,1,0,.45l.53.3a4.74,4.74,0,0,0,.06-.75A2.58,2.58,0,0,0,278.48,304.07Z" style="fill:#263238"></path><path d="M269.12,304.28a.46.46,0,0,0,0,.87,1.65,1.65,0,0,0,1.5,0,.46.46,0,0,0,0-.87A1.65,1.65,0,0,0,269.12,304.28Z" style="opacity:0.1"></path><path d="M274,301.46a2,2,0,0,0-2,.14,6.3,6.3,0,0,0-2.55,3.66,1.76,1.76,0,0,0,.56.07,5.65,5.65,0,0,1,2.27-3.25,1.94,1.94,0,0,1,.92-.28,1.09,1.09,0,0,1,.54.14,2,2,0,0,1,.76,1.86,3.39,3.39,0,0,1,0,.45l.53.31a6.61,6.61,0,0,0,.05-.76A2.58,2.58,0,0,0,274,301.46Z" style="fill:#263238"></path><path d="M264.59,301.66a.46.46,0,0,0,0,.87,1.65,1.65,0,0,0,1.5,0,.46.46,0,0,0,0-.87A1.65,1.65,0,0,0,264.59,301.66Z" style="opacity:0.1"></path><path d="M269.42,298.84a2,2,0,0,0-2,.14,6.33,6.33,0,0,0-2.55,3.66,1.49,1.49,0,0,0,.56.07,5.59,5.59,0,0,1,2.27-3.24,1.83,1.83,0,0,1,.92-.29,1,1,0,0,1,.54.15,2,2,0,0,1,.76,1.86,3.17,3.17,0,0,1,0,.44l.53.31a6.44,6.44,0,0,0,0-.75A2.59,2.59,0,0,0,269.42,298.84Z" style="fill:#263238"></path><path d="M260.06,299c-.42.25-.42.64,0,.88a1.65,1.65,0,0,0,1.5,0c.42-.24.42-.63,0-.88A1.65,1.65,0,0,0,260.06,299Z" style="opacity:0.1"></path><path d="M264.89,296.23a2,2,0,0,0-2,.14,6.33,6.33,0,0,0-2.54,3.66,1.72,1.72,0,0,0,.56.06,5.62,5.62,0,0,1,2.26-3.24,1.87,1.87,0,0,1,.93-.28,1.11,1.11,0,0,1,.54.14,2.07,2.07,0,0,1,.76,1.86c0,.15,0,.3,0,.45l.52.3a4.74,4.74,0,0,0,.06-.75A2.57,2.57,0,0,0,264.89,296.23Z" style="fill:#263238"></path><path d="M255.52,296.43a.46.46,0,0,0,0,.87,1.67,1.67,0,0,0,1.51,0,.46.46,0,0,0,0-.87A1.67,1.67,0,0,0,255.52,296.43Z" style="opacity:0.1"></path><path d="M260.35,293.61a2,2,0,0,0-2,.14,6.33,6.33,0,0,0-2.54,3.66,1.66,1.66,0,0,0,.55.07,5.74,5.74,0,0,1,2.27-3.25,2,2,0,0,1,.92-.28,1.15,1.15,0,0,1,.55.14,2.08,2.08,0,0,1,.76,1.87,3.37,3.37,0,0,1,0,.44l.53.31a4.93,4.93,0,0,0,.06-.75A2.57,2.57,0,0,0,260.35,293.61Z" style="fill:#263238"></path><path d="M251,293.81a.46.46,0,0,0,0,.87,1.67,1.67,0,0,0,1.51,0,.46.46,0,0,0,0-.87A1.67,1.67,0,0,0,251,293.81Z" style="opacity:0.1"></path><path d="M255.82,291a2,2,0,0,0-2,.14,6.32,6.32,0,0,0-2.54,3.66,1.44,1.44,0,0,0,.55.07,5.64,5.64,0,0,1,2.27-3.24,1.89,1.89,0,0,1,.92-.29,1,1,0,0,1,.54.15,2,2,0,0,1,.77,1.86,3.4,3.4,0,0,1,0,.45l.53.3a4.81,4.81,0,0,0,.05-.75A2.58,2.58,0,0,0,255.82,291Z" style="fill:#263238"></path><path d="M246.46,291.2a.46.46,0,0,0,0,.87,1.65,1.65,0,0,0,1.5,0c.42-.24.42-.63,0-.88A1.62,1.62,0,0,0,246.46,291.2Z" style="opacity:0.1"></path><path d="M251.29,288.38a2,2,0,0,0-2,.14,6.3,6.3,0,0,0-2.55,3.66,1.75,1.75,0,0,0,.56.06,5.59,5.59,0,0,1,2.27-3.24,1.83,1.83,0,0,1,.92-.28,1.09,1.09,0,0,1,.54.14,2,2,0,0,1,.76,1.86,3.39,3.39,0,0,1,0,.45l.53.3a6.3,6.3,0,0,0,.05-.75A2.57,2.57,0,0,0,251.29,288.38Z" style="fill:#263238"></path><path d="M241.93,288.58a.46.46,0,0,0,0,.87,1.65,1.65,0,0,0,1.5,0,.46.46,0,0,0,0-.87A1.65,1.65,0,0,0,241.93,288.58Z" style="opacity:0.1"></path><path d="M246.76,285.76a2,2,0,0,0-2,.14,6.3,6.3,0,0,0-2.55,3.66,1.72,1.72,0,0,0,.56.07,5.65,5.65,0,0,1,2.27-3.25,1.91,1.91,0,0,1,.92-.28,1.11,1.11,0,0,1,.54.14,2.08,2.08,0,0,1,.76,1.87,3.31,3.31,0,0,1,0,.44l.52.31a4.93,4.93,0,0,0,.06-.75A2.59,2.59,0,0,0,246.76,285.76Z" style="fill:#263238"></path><path d="M237.39,286a.46.46,0,0,0,0,.87,1.67,1.67,0,0,0,1.51,0,.46.46,0,0,0,0-.87A1.67,1.67,0,0,0,237.39,286Z" style="opacity:0.1"></path><path d="M242.23,283.14a2,2,0,0,0-2,.14,6.36,6.36,0,0,0-2.54,3.66,1.44,1.44,0,0,0,.55.07,5.68,5.68,0,0,1,2.27-3.24,1.89,1.89,0,0,1,.92-.29,1.06,1.06,0,0,1,.55.15,2.06,2.06,0,0,1,.76,1.86,3.4,3.4,0,0,1,0,.45l.53.3a4.84,4.84,0,0,0,.06-.75A2.6,2.6,0,0,0,242.23,283.14Z" style="fill:#263238"></path><path d="M246.46,324a.51.51,0,0,1-.44-.26.52.52,0,0,1,.18-.7l24.95-14.4a.51.51,0,0,1,.7.19.5.5,0,0,1-.19.69l-24.94,14.41A.59.59,0,0,1,246.46,324Z" style="fill:#ebebeb"></path><path d="M243.44,322.23A.5.5,0,0,1,243,322a.51.51,0,0,1,.18-.7l24.95-14.41a.53.53,0,0,1,.7.19.51.51,0,0,1-.19.7l-24.94,14.4A.48.48,0,0,1,243.44,322.23Z" style="fill:#ebebeb"></path><path d="M240.42,320.49a.51.51,0,0,1-.44-.26.52.52,0,0,1,.18-.7l25-14.4a.51.51,0,1,1,.51.88l-25,14.41A.59.59,0,0,1,240.42,320.49Z" style="fill:#ebebeb"></path><path d="M237.4,318.74a.53.53,0,0,1-.45-.25.52.52,0,0,1,.19-.7l24.95-14.4a.51.51,0,1,1,.51.88l-25,14.4A.47.47,0,0,1,237.4,318.74Z" style="fill:#ebebeb"></path><path d="M234.37,317a.51.51,0,0,1-.25-1l24.95-14.4a.51.51,0,0,1,.51.88l-24.95,14.41A.59.59,0,0,1,234.37,317Z" style="fill:#ebebeb"></path><path d="M231.35,315.25a.51.51,0,0,1-.25-.95L256,299.9a.51.51,0,1,1,.52.88l-24.95,14.41A.58.58,0,0,1,231.35,315.25Z" style="fill:#ebebeb"></path><path d="M228.33,313.51a.49.49,0,0,1-.44-.26.51.51,0,0,1,.18-.69l25-14.41a.51.51,0,0,1,.51.89l-24.94,14.4A.48.48,0,0,1,228.33,313.51Z" style="fill:#ebebeb"></path><path d="M225.31,311.77a.51.51,0,0,1-.44-.26.51.51,0,0,1,.18-.7L250,296.41a.52.52,0,0,1,.7.18.51.51,0,0,1-.19.7L225.56,311.7A.55.55,0,0,1,225.31,311.77Z" style="fill:#ebebeb"></path><path d="M222.29,310a.49.49,0,0,1-.44-.26.51.51,0,0,1,.18-.69L247,294.66a.51.51,0,0,1,.7.19.52.52,0,0,1-.19.7l-25,14.4A.45.45,0,0,1,222.29,310Z" style="fill:#ebebeb"></path><path d="M219.27,308.28a.54.54,0,0,1-.45-.26.52.52,0,0,1,.19-.7l25-14.4a.51.51,0,1,1,.51.88l-24.95,14.41A.59.59,0,0,1,219.27,308.28Z" style="fill:#ebebeb"></path><path d="M216.24,306.53a.52.52,0,0,1-.44-.25.51.51,0,0,1,.19-.7l24.95-14.41a.51.51,0,0,1,.7.19.52.52,0,0,1-.19.7l-24.95,14.4A.48.48,0,0,1,216.24,306.53Z" style="fill:#ebebeb"></path><path d="M213.22,304.79a.52.52,0,0,1-.44-.26.51.51,0,0,1,.19-.7l24.95-14.4a.5.5,0,0,1,.69.19.51.51,0,0,1-.18.69l-25,14.41A.59.59,0,0,1,213.22,304.79Z" style="fill:#ebebeb"></path><path d="M210.2,303a.51.51,0,0,1-.25-1l24.94-14.41a.53.53,0,0,1,.7.19.51.51,0,0,1-.19.7L210.46,303A.48.48,0,0,1,210.2,303Z" style="fill:#ebebeb"></path><path d="M249.53,325.72a.5.5,0,0,1-.44-.25.51.51,0,0,1,.18-.7l26.39-15.27a.52.52,0,0,1,.7.19.51.51,0,0,1-.19.7l-26.39,15.26A.45.45,0,0,1,249.53,325.72Z" style="fill:#FF9914"></path><g style="opacity:0.25"><path d="M262.72,306.76a2.26,2.26,0,0,0-1-.66l-.49-.25c-.24-.37-.54-1-.14-1.05a3.07,3.07,0,0,1,1,.29c.15,0,.12-.17,0-.21-.44-.18-1.29-.73-1.47,0a1.16,1.16,0,0,0,.1.69,1.55,1.55,0,0,0-.65-.12c-.21,0-.39,0-.47.27s0,.2,0,.3.17.2.21.22a.79.79,0,0,0-.24,0c-.31,0-1.17-.22-1.37.17-.08.16.11.38.08.44s-.63.24-.73.3,0,.2-.05.22a8.67,8.67,0,0,1-.9,0c-.51,0-1.74-.15-1.58.62,0,.08.08.07.1.21a.51.51,0,0,0,0,.18s-.05,0-.12.11-.21,0-.28.12c-.23.29.13.4-.17.58s-1.28-.26-1.7,0,.11,1-.55,1c-.15,0-.07.22,0,.23.62.05.55-.06.67-.57.19-.83,1.43-.26,2.12-.45a.12.12,0,0,0,.05-.18c-.18-.3,0-.46.31-.59a.12.12,0,0,0,.05-.18c-.08-.13-.34-.55-.18-.74a5.17,5.17,0,0,1,.74-.09,14.42,14.42,0,0,1,1.61,0,.12.12,0,0,0,.11-.16c-.08-.17.62-.28.77-.32a.11.11,0,0,0,.07-.14c-.34-.83.89-.53,1.4-.45a.11.11,0,0,0,.14-.15c-.08-.28-.69-.56,0-.66a1.23,1.23,0,0,1,.56.13,3.86,3.86,0,0,0,1.28,1.32C262.6,307.49,263.09,307.32,262.72,306.76Zm-.23.15c.15.2-.33,0-.39,0a1.79,1.79,0,0,1-.63-.68l.37.2A1.46,1.46,0,0,1,262.49,306.91Z"></path><path d="M250.24,312c-.09-.36-.1-.75.23-.8.16,0,.05-.24-.07-.24-.45,0-.59.38-.54.85a2.18,2.18,0,0,0-.56-.19c-.29-.06-.48-.07-.58.23s.09.3.08.46.22.14-.14.23a3.15,3.15,0,0,1-.41,0c-.36,0-.39,0-.61.19s.33.27-.32.17a1.29,1.29,0,0,0-.51-.07c-.24.05-.37.12-.33.39s.28.27.28.35c0,.57-.63.09-.86,0a.11.11,0,0,0-.15.09c0,.28.19.38-.22.41-.05,0-.34-.16-.43-.16-.26,0-.5.35-.85.32-.1,0-.13.08-.1.15.1.26.24.42-.28.64,0,0-.62-.07-.61-.07-.15,0,0,.24.07.25s1,.36,1.28,0-.17-.51-.09-.66c-.05.1.46-.14.52-.16a1.32,1.32,0,0,1,.4-.11c.08,0,.14.12.21.12s.21,0,.3,0,.12-.17.15-.19-.12-.14.06-.2.25.09.37.13.49.2.66,0-.18-.46-.15-.64c.09-.41.67-.1.94-.28a.11.11,0,0,0,0-.12c-.17-.57.85-.13,1.18-.19.05,0,.12-.05.11-.11s-.13-.36-.13-.36c.08-.34.55-.3.76-.24.21.68.75,1.38,1.35,1.19a.09.09,0,0,0,.07-.1C251.32,312.8,250.79,312.33,250.24,312Zm.21.57-.07-.16a1.4,1.4,0,0,1,.41.41C250.91,313.17,250.51,312.67,250.45,312.58Z"></path><path d="M259.31,315.7a2.26,2.26,0,0,0-1-.66l-.5-.25c-.23-.37-.53-1-.13-1.05a3.14,3.14,0,0,1,1,.29c.15,0,.12-.17,0-.21-.44-.18-1.29-.73-1.47,0a1.09,1.09,0,0,0,.1.69,1.57,1.57,0,0,0-.66-.12c-.21,0-.39,0-.46.27s0,.2,0,.3a.25.25,0,0,0,.21.21h-.24c-.31,0-1.17-.22-1.37.17-.09.16.1.38.08.44s-.63.24-.74.3,0,.2,0,.22a8.82,8.82,0,0,1-.91,0c-.5,0-1.73-.15-1.57.62,0,.08.08.07.1.21a.51.51,0,0,0,0,.18s-.06,0-.12.11-.22,0-.28.12c-.24.29.13.4-.17.58s-1.28-.26-1.7,0,.11,1-.56,1c-.14,0-.06.22.05.23.63.05.56-.07.68-.57.19-.83,1.43-.26,2.12-.45a.12.12,0,0,0,.05-.18c-.18-.3,0-.46.31-.59a.12.12,0,0,0,0-.18c-.08-.13-.34-.55-.18-.74a5.17,5.17,0,0,1,.74-.09,14.39,14.39,0,0,1,1.61,0,.12.12,0,0,0,.1-.16c-.07-.17.62-.28.78-.32a.11.11,0,0,0,.07-.14c-.34-.83.89-.53,1.4-.45a.11.11,0,0,0,.14-.15c-.08-.28-.69-.56,0-.66a1.23,1.23,0,0,1,.56.13,3.8,3.8,0,0,0,1.27,1.31C259.19,316.43,259.68,316.26,259.31,315.7Zm-.23.15c.15.2-.33,0-.39,0a1.9,1.9,0,0,1-.64-.68l.38.2A1.46,1.46,0,0,1,259.08,315.85Z"></path><path d="M267,309.36c-.09-.36-.1-.76.24-.8.16,0,0-.24-.08-.25-.45,0-.59.38-.53.85A3.08,3.08,0,0,0,266,309c-.29-.05-.48-.06-.58.24s.08.29.07.45.22.14-.13.24a2,2,0,0,1-.41,0,.65.65,0,0,0-.61.19c-.22.19.33.28-.33.17a1.43,1.43,0,0,0-.51-.07c-.24.06-.36.13-.32.39s.27.28.27.35c0,.58-.62.09-.86,0a.1.1,0,0,0-.14.09c0,.28.18.38-.23.4-.05,0-.33-.15-.42-.15-.27,0-.51.34-.86.31-.09,0-.12.08-.09.16.09.26.23.41-.29.64l-.6-.08c-.15,0-.06.24.06.25s1,.36,1.28,0-.17-.51-.08-.66c-.06.09.46-.15.51-.17a2.45,2.45,0,0,1,.41-.11c.07,0,.13.12.21.12s.21,0,.3,0,.11-.16.15-.19-.12-.13.06-.19.24.08.36.12.5.21.66,0-.18-.46-.14-.64c.08-.41.66-.1.93-.29a.11.11,0,0,0,0-.12c-.17-.56.86-.12,1.18-.18.06,0,.12-.05.11-.12a2.65,2.65,0,0,0-.13-.35c.09-.34.55-.31.77-.25.2.69.75,1.38,1.34,1.2a.12.12,0,0,0,.08-.11C268.06,310.15,267.53,309.68,267,309.36Zm.22.56a1.16,1.16,0,0,1-.08-.16,1.46,1.46,0,0,1,.42.41C267.64,310.51,267.24,310,267.19,309.92Z"></path><path d="M244.29,296.57a2.16,2.16,0,0,0-1-.65l-.49-.26c-.23-.36-.54-1-.13-1,.24-.05.7.21,1,.28s.11-.17,0-.21c-.45-.17-1.3-.72-1.48,0a1.19,1.19,0,0,0,.1.7,1.41,1.41,0,0,0-.65-.12c-.21,0-.39,0-.47.27s0,.19,0,.29a.26.26,0,0,0,.21.22l-.24,0c-.31,0-1.17-.22-1.37.17-.08.16.11.39.08.45s-.63.23-.73.3,0,.2-.05.21a5.28,5.28,0,0,1-.9,0c-.5,0-1.74-.14-1.58.62,0,.09.09.08.1.21a.7.7,0,0,0,0,.19s-.05,0-.12.1-.21,0-.28.12c-.23.3.13.4-.17.59s-1.28-.27-1.7,0,.11,1-.55,1c-.15,0-.06.22,0,.23.62.06.55-.06.67-.57.19-.83,1.43-.26,2.12-.45a.12.12,0,0,0,0-.18c-.18-.29,0-.46.31-.58a.12.12,0,0,0,.05-.18c-.07-.14-.34-.55-.18-.75a4.09,4.09,0,0,1,.74-.08,14.42,14.42,0,0,1,1.61,0,.12.12,0,0,0,.11-.15c-.08-.18.62-.29.77-.32a.12.12,0,0,0,.07-.15c-.34-.83.89-.52,1.4-.44a.13.13,0,0,0,.15-.16c-.08-.28-.7-.56,0-.66a1.23,1.23,0,0,1,.56.13,4,4,0,0,0,1.28,1.32C244.17,297.3,244.66,297.13,244.29,296.57Zm-.23.15c.15.2-.33,0-.38,0a1.68,1.68,0,0,1-.64-.68,3.64,3.64,0,0,0,.38.2A1.43,1.43,0,0,1,244.06,296.72Z"></path><path d="M231.81,301.83c-.09-.36-.1-.76.23-.8.16,0,.05-.24-.07-.25-.45,0-.59.38-.53.85a3.08,3.08,0,0,0-.56-.19c-.3-.05-.49-.06-.58.24s.08.29.07.45.22.14-.14.23a1.5,1.5,0,0,1-.41,0c-.36,0-.39,0-.6.19s.32.28-.33.17a1.46,1.46,0,0,0-.51-.07c-.24.06-.37.12-.33.39s.28.28.28.35c0,.58-.63.09-.86,0a.11.11,0,0,0-.15.09c0,.29.19.39-.22.41,0,0-.33-.15-.43-.15-.26,0-.5.34-.85.31-.09,0-.13.08-.1.16.1.26.24.41-.28.64l-.6-.08c-.15,0-.06.24.06.25s1,.36,1.28,0-.17-.51-.08-.67c-.06.1.46-.14.51-.16a1.76,1.76,0,0,1,.41-.11c.07,0,.13.12.2.12s.21.05.3,0,.12-.16.15-.19-.11-.13.07-.19.24.08.36.12.49.21.66,0-.18-.46-.15-.65c.09-.4.67-.09.94-.28a.11.11,0,0,0,0-.12c-.17-.57.86-.12,1.18-.18.06,0,.12-.05.11-.12s-.13-.35-.13-.36c.08-.33.55-.3.76-.24.21.69.76,1.38,1.35,1.2a.11.11,0,0,0,.07-.11C232.89,302.61,232.36,302.15,231.81,301.83Zm.21.56a1.44,1.44,0,0,1-.07-.16,1.39,1.39,0,0,1,.41.41C232.48,303,232.08,302.49,232,302.39Z"></path><path d="M240.88,305.51a2.16,2.16,0,0,0-1-.65l-.5-.26c-.23-.36-.53-1-.13-1,.24-.05.71.21,1,.28s.12-.17,0-.21c-.44-.17-1.29-.72-1.47,0a1.12,1.12,0,0,0,.1.7,1.43,1.43,0,0,0-.66-.12c-.21,0-.38,0-.46.27s0,.19,0,.29a.26.26,0,0,0,.21.22l-.24,0c-.31,0-1.17-.22-1.37.17-.08.16.1.39.08.45s-.63.23-.74.3,0,.2,0,.21a5.38,5.38,0,0,1-.91,0c-.5,0-1.73-.15-1.57.62,0,.09.08.08.1.21a.7.7,0,0,0,0,.19s-.06,0-.12.1-.22,0-.28.12c-.23.3.13.4-.17.59s-1.28-.27-1.7,0,.11,1-.55,1c-.15,0-.07.22,0,.23.63.06.56-.06.68-.57.19-.83,1.43-.26,2.12-.45a.12.12,0,0,0,0-.18c-.18-.29,0-.46.31-.58a.12.12,0,0,0,.05-.18c-.08-.14-.34-.55-.18-.75a4.09,4.09,0,0,1,.74-.08,14.37,14.37,0,0,1,1.61,0,.12.12,0,0,0,.11-.15c-.08-.18.62-.29.77-.32a.12.12,0,0,0,.07-.15c-.34-.83.89-.52,1.4-.44a.12.12,0,0,0,.14-.16c-.08-.28-.69-.56,0-.66a1.23,1.23,0,0,1,.56.13,3.94,3.94,0,0,0,1.27,1.32C240.76,306.24,241.25,306.07,240.88,305.51Zm-.23.15c.15.2-.33,0-.39,0a1.9,1.9,0,0,1-.64-.68l.38.2A1.46,1.46,0,0,1,240.65,305.66Z"></path><path d="M248.54,299.17c-.09-.36-.1-.76.24-.8.16,0,0-.24-.08-.24-.45,0-.59.37-.53.85a2.31,2.31,0,0,0-.56-.19c-.29-.06-.48-.07-.58.23s.09.3.07.46.22.14-.13.23a3,3,0,0,1-.41,0c-.36,0-.39,0-.61.19s.33.27-.33.17a1.24,1.24,0,0,0-.51-.07c-.24.05-.36.12-.32.38s.27.28.27.36c0,.57-.62.09-.86,0a.11.11,0,0,0-.14.09c0,.28.19.38-.23.41-.05,0-.33-.16-.42-.16-.27,0-.51.35-.86.32-.09,0-.12.07-.09.15.09.26.23.42-.29.64,0,0-.61-.08-.6-.08-.15,0,0,.25.06.26s1.05.35,1.28,0-.17-.51-.08-.66c-.06.1.46-.14.52-.16a1.24,1.24,0,0,1,.4-.11c.07,0,.13.11.21.11s.21,0,.3,0,.11-.17.15-.19-.12-.14.06-.2.24.09.37.13.49.2.65,0-.18-.46-.14-.64c.08-.41.67-.1.93-.28a.12.12,0,0,0,0-.13c-.16-.56.86-.12,1.18-.18.06,0,.12-.05.11-.12s-.13-.35-.12-.35c.08-.34.54-.3.76-.25.2.69.75,1.38,1.34,1.2a.11.11,0,0,0,.08-.1C249.63,300,249.1,299.49,248.54,299.17Zm.22.57-.08-.17a1.35,1.35,0,0,1,.42.42C249.21,300.33,248.81,299.83,248.76,299.74Z"></path><path d="M242.77,311.66a2.11,2.11,0,0,0-1-.65l-.49-.25c-.23-.37-.54-1-.13-1.05.24,0,.71.21,1,.29s.11-.18,0-.22c-.45-.17-1.3-.72-1.48,0a1.19,1.19,0,0,0,.1.7,1.39,1.39,0,0,0-.65-.12c-.21,0-.39,0-.46.27s0,.19,0,.29a.27.27,0,0,0,.21.22l-.23,0c-.32,0-1.18-.22-1.38.17-.08.16.11.39.08.45s-.62.23-.73.3,0,.2,0,.22a6.88,6.88,0,0,1-.91,0c-.5,0-1.74-.14-1.58.63,0,.08.09.07.1.2a1.26,1.26,0,0,0,0,.19s0,0-.12.1-.21,0-.27.12c-.24.3.12.4-.17.59s-1.29-.27-1.71,0,.11,1-.55,1c-.15,0-.06.22.05.23.62.06.55-.06.67-.57.2-.83,1.43-.26,2.13-.45.08,0,.08-.12.05-.18-.19-.29,0-.46.3-.58a.12.12,0,0,0,0-.18c-.07-.14-.34-.55-.17-.74a3.24,3.24,0,0,1,.73-.09,14.6,14.6,0,0,1,1.62,0,.11.11,0,0,0,.1-.15c-.08-.18.62-.29.77-.32a.11.11,0,0,0,.07-.15c-.33-.83.9-.52,1.41-.44a.12.12,0,0,0,.14-.16c-.08-.28-.7-.56,0-.66a1.18,1.18,0,0,1,.56.13,4,4,0,0,0,1.28,1.32C242.65,312.39,243.14,312.23,242.77,311.66Zm-.22.15c.15.21-.33,0-.39,0a1.75,1.75,0,0,1-.64-.68c.15.08.28.16.38.2A1.52,1.52,0,0,1,242.55,311.81Z"></path><path d="M248.85,305.88c-.1-.36-.11-.75.23-.79.16,0,0-.24-.08-.25-.45,0-.59.38-.53.85a2.85,2.85,0,0,0-.56-.19c-.29-.05-.48-.06-.58.24s.09.29.07.45.22.14-.13.23a2,2,0,0,1-.41,0,.62.62,0,0,0-.61.19c-.22.19.33.28-.32.17a1.31,1.31,0,0,0-.52-.07c-.23.05-.36.12-.32.39s.27.28.27.35c0,.58-.62.09-.86,0a.11.11,0,0,0-.14.09c0,.29.19.39-.23.41,0,0-.33-.15-.42-.16-.27,0-.51.35-.85.32-.1,0-.13.08-.1.15.09.26.23.42-.29.64,0,0-.61-.07-.61-.07s0,.24.07.25,1,.36,1.28,0-.17-.52-.08-.67c-.06.1.46-.14.52-.16a1.56,1.56,0,0,1,.4-.11c.07,0,.13.12.21.12s.21.05.3,0,.11-.17.15-.19-.12-.13.06-.2.24.09.37.13.49.21.65,0-.18-.46-.14-.65c.08-.41.67-.1.93-.28a.11.11,0,0,0,0-.12c-.16-.57.86-.13,1.18-.19.06,0,.12,0,.11-.11s-.13-.35-.12-.36c.08-.34.54-.3.76-.24.21.69.75,1.38,1.34,1.19a.1.1,0,0,0,.08-.1C249.93,306.67,249.4,306.2,248.85,305.88Zm.21.57-.08-.16a1.35,1.35,0,0,1,.42.41C249.51,307,249.12,306.54,249.06,306.45Z"></path><path d="M255.8,301.2a.29.29,0,0,0,0-.13c-.1-.36-.51-.09-.58.12s.09.3.08.46.22.14-.14.23a3.15,3.15,0,0,1-.41,0c-.36,0-.39,0-.61.19s.33.27-.32.17a1.29,1.29,0,0,0-.51-.07c-.24.05-.37.12-.33.39s.28.27.28.35c0,.57-.63.09-.86,0a.11.11,0,0,0-.15.09c0,.28.19.38-.22.41-.05,0-.34-.16-.43-.16-.26,0-.5.35-.85.32-.1,0-.13.08-.1.15.1.26.24.42-.28.64,0,0-.62-.07-.62-.07s0,.24.08.25,1,.36,1.28,0-.17-.51-.09-.66c-.05.1.46-.14.52-.16a1.3,1.3,0,0,1,.41-.11c.07,0,.13.12.2.12s.21,0,.3,0,.12-.17.15-.19-.12-.14.07-.2.24.09.36.13.49.2.66,0-.18-.46-.15-.64c.09-.41.67-.1.94-.28a.12.12,0,0,0,0-.13c-.17-.56.86-.12,1.18-.18.06,0,.12,0,.11-.11a1.8,1.8,0,0,1-.05-.73A1,1,0,0,0,255.8,301.2Z"></path></g></g></g></g><g id="freepik--Device--inject-119"><g id="freepik--Laptop--inject-119"><g id="freepik--laptop--inject-119"><path d="M286.88,369l-54.76-31.61a3.16,3.16,0,0,0-3.15,0l-95,54.86a.7.7,0,0,0,0,1.21l55.28,31.92Z" style="fill:#FF9914;opacity:0.30000000000000004"></path><path d="M282.79,362.34v1.23a5.08,5.08,0,0,1-2.52,4.39L191.77,419a4.92,4.92,0,0,1-2.51.67,5,5,0,0,1-2.55-.67l-48.24-27.76A5.07,5.07,0,0,1,136,386.9v-1.7h0a.63.63,0,0,0,.32.56l53,30.59Z" style="fill:#37474f"></path><path d="M282.8,362.34l-52.47-30.29a3,3,0,0,0-3,0l-91,52.56a.67.67,0,0,0,0,1.16l53,30.58Z" style="fill:#455a64"></path><polygon points="188.77 411.9 160.47 395.58 243.22 347.8 271.67 364.04 188.77 411.9" style="fill:#37474f"></polygon><polygon points="271.66 364.04 270.58 364.66 243.22 349.04 161.55 396.2 160.47 395.58 243.22 347.8 271.66 364.04" style="fill:#263238"></polygon><polygon points="174.86 366.49 175.38 366.8 189.25 374.8 213.92 360.56 214.43 360.27 200.04 351.96 174.86 366.49" style="fill:#263238"></polygon><polygon points="175.38 366.8 189.25 374.8 213.92 360.56 200.04 352.55 175.38 366.8" style="fill:#37474f"></polygon><path d="M189.25,416.35v3.37a4.94,4.94,0,0,0,2.52-.68L280.27,368a5.06,5.06,0,0,0,2.53-4.38v-1.23Z" style="fill:#263238"></path></g><path d="M190.68,417.1a6,6,0,0,0,5.16-.4l88.1-50.87a6,6,0,0,0,2.92-4.19l9.64-57.52a5.33,5.33,0,0,0,.08-1,6,6,0,0,0-1.77-4.26l-91.56,52.87a4.44,4.44,0,0,0-2.15,3.1Z" style="fill:#37474f"></path><path d="M189.25,416.35l.6.35a7.93,7.93,0,0,0,.83.4l10.42-62.25a4.44,4.44,0,0,1,2.15-3.1l91.56-52.87a6,6,0,0,0-1.22-.93l-91.75,53a4.42,4.42,0,0,0-2.15,3.1Z" style="fill:#455a64"></path><path d="M202,352.92l-1.42-.82a4.43,4.43,0,0,0-.84,1.92l-10.44,62.33.6.35a7.93,7.93,0,0,0,.83.4l10.42-62.25A4.37,4.37,0,0,1,202,352.92Z" style="fill:#263238"></path><path d="M240.3,364c.64-3.85,4.62-9,8.88-11.43s7.18-1.32,6.54,2.53-4.62,9-8.88,11.42S239.65,367.85,240.3,364Z" style="fill:#FF9914"></path></g></g><g id="freepik--Icon--inject-119"><g id="freepik--missing-idea--inject-119"><path d="M78.26,88.48a3.75,3.75,0,0,1-.58,0,2.42,2.42,0,0,1-.85-.26h0l-1-.67-.29,0A3,3,0,0,1,73.07,86a2.44,2.44,0,0,1-.51-.75,46.14,46.14,0,0,0-.85-1.35,2.36,2.36,0,0,1-.42-.67,2.77,2.77,0,0,1-.32-.47,2.79,2.79,0,0,1-.72-.94,1,1,0,0,0-.18-.23,2.24,2.24,0,0,1-.39-.56c-.78-1.87-3-2.72-5.7-3.8-4.37-1.71-10.35-4.06-13.8-12.3A18.47,18.47,0,0,1,84.25,50.67c3.45,8.24.93,14.15-.91,18.46C82.18,71.85,81.26,74,82,75.86a2,2,0,0,1,.13.7c0,.09,0,.22,0,.26a2.64,2.64,0,0,1,.19,1.23,2.29,2.29,0,0,1,.09.5,2.22,2.22,0,0,1,.18.77,2.35,2.35,0,0,1,.19.78,2.48,2.48,0,0,1,.18.77,2.57,2.57,0,0,1,.18.89,3,3,0,0,1-.67,2.83l-.2.22-.16,1a2.44,2.44,0,0,1-.45,1A4.91,4.91,0,0,1,78.26,88.48ZM77.2,87.25l0,0a1.42,1.42,0,0,0,.57.19,3.8,3.8,0,0,0,3.12-1.32,1.37,1.37,0,0,0,.27-.54l.21-1.25.2-.22.14-.15a2,2,0,0,0,.5-1.94l0-.1v-.1a1.39,1.39,0,0,0-.12-.63l0-.1V81a1.48,1.48,0,0,0-.13-.56l-.05-.1v-.11a1.33,1.33,0,0,0-.14-.57l0-.09v-.11a1.33,1.33,0,0,0-.14-.57l0-.1v-.1a2,2,0,0,0-.09-.43l0-.11V78a1.62,1.62,0,0,0-.11-.83,1.91,1.91,0,0,1-.1-.58,1.39,1.39,0,0,0-.06-.39c-.94-2.25.1-4.68,1.3-7.5,1.87-4.38,4.2-9.83.91-17.68A17.47,17.47,0,0,0,51.1,64.55c3.29,7.85,8.81,10,13.24,11.75,2.86,1.12,5.32,2.09,6.27,4.35a1.47,1.47,0,0,0,.22.29,2,2,0,0,1,.35.5,1.64,1.64,0,0,0,.51.62l.14.17a1.32,1.32,0,0,0,.26.39l.11.18a1.35,1.35,0,0,0,.31.49l.11.18a1.28,1.28,0,0,0,.31.49l.12.19a1.2,1.2,0,0,0,.31.48l.11.19a1.26,1.26,0,0,0,.36.52l.12.17a2,2,0,0,0,1.73,1h.19l.31,0Z" style="fill:#e0e0e0"></path><path d="M58.49,37.36a.51.51,0,0,1-.49-.31l-2.61-6.16a.5.5,0,1,1,.92-.4l2.62,6.17a.5.5,0,0,1-.27.66A.59.59,0,0,1,58.49,37.36Z" style="fill:#e0e0e0"></path><path d="M48.53,45.13a.5.5,0,0,1-.33-.1l-5.34-4a.5.5,0,0,1-.1-.71.51.51,0,0,1,.7-.1l5.35,4a.51.51,0,0,1,.1.7A.52.52,0,0,1,48.53,45.13Z" style="fill:#e0e0e0"></path><path d="M43.79,56.84H43.7L37.06,56a.5.5,0,1,1,.12-1l6.65.82a.5.5,0,0,1,.43.56A.49.49,0,0,1,43.79,56.84Z" style="fill:#e0e0e0"></path><path d="M39.37,72a.5.5,0,0,1-.48-.31.5.5,0,0,1,.27-.66l6.16-2.61a.5.5,0,0,1,.66.27.49.49,0,0,1-.27.65l-6.16,2.62A.58.58,0,0,1,39.37,72Z" style="fill:#e0e0e0"></path><path d="M49.28,84.66a.47.47,0,0,1-.32-.1.49.49,0,0,1-.1-.7l4-5.35a.5.5,0,1,1,.8.61l-4,5.34A.52.52,0,0,1,49.28,84.66Z" style="fill:#e0e0e0"></path><path d="M64.2,90.7h-.08a.52.52,0,0,1-.44-.56l.82-6.65a.5.5,0,0,1,1,.12l-.82,6.65A.5.5,0,0,1,64.2,90.7Z" style="fill:#e0e0e0"></path><path d="M92.84,78.56a.49.49,0,0,1-.32-.1l-5.35-4a.51.51,0,0,1,.61-.81l5.34,4a.49.49,0,0,1,.1.7A.46.46,0,0,1,92.84,78.56Z" style="fill:#e0e0e0"></path><path d="M98.88,63.64H98.8l-6.65-.82a.5.5,0,0,1,.13-1l6.64.82a.5.5,0,0,1,.44.56A.51.51,0,0,1,98.88,63.64Z" style="fill:#e0e0e0"></path><path d="M90.48,50.3A.49.49,0,0,1,90,50a.5.5,0,0,1,.27-.66l6.16-2.61a.5.5,0,1,1,.39.92l-6.16,2.61A.39.39,0,0,1,90.48,50.3Z" style="fill:#e0e0e0"></path><path d="M82.71,40.34a.42.42,0,0,1-.32-.1.49.49,0,0,1-.1-.7l4-5.35a.5.5,0,0,1,.7-.09.49.49,0,0,1,.1.7l-4,5.34A.48.48,0,0,1,82.71,40.34Z" style="fill:#e0e0e0"></path><path d="M71,35.61h-.09a.49.49,0,0,1-.43-.56l.82-6.64a.49.49,0,0,1,.56-.44.51.51,0,0,1,.44.56l-.83,6.64A.5.5,0,0,1,71,35.61Z" style="fill:#e0e0e0"></path><path d="M57.32,53.57a14.82,14.82,0,0,1,1-1.71,11.92,11.92,0,0,1,1.31-1.64,12.36,12.36,0,0,1,1.72-1.44,12.92,12.92,0,0,1,2.22-1.21,10.5,10.5,0,0,1,3.27-.83,7.42,7.42,0,0,1,2.93.32,6.35,6.35,0,0,1,2.42,1.43A7.32,7.32,0,0,1,73.86,51a7.43,7.43,0,0,1,.66,2.73,7.81,7.81,0,0,1-.28,2.32,8.43,8.43,0,0,1-.82,2c-.35.61-.67,1.18-1,1.71a12.39,12.39,0,0,0-.75,1.51,2.15,2.15,0,0,0-.11,1.36l.75,3L69.05,67l-1.67-3A2.79,2.79,0,0,1,67,62.28a5.28,5.28,0,0,1,.47-1.69,14.53,14.53,0,0,1,.94-1.7,13.9,13.9,0,0,0,1-1.78,6.67,6.67,0,0,0,.53-1.89,4,4,0,0,0-.33-2.07,3.17,3.17,0,0,0-.8-1.14,3.06,3.06,0,0,0-1.12-.64,3.69,3.69,0,0,0-1.38-.14,4.88,4.88,0,0,0-1.49.38,6.89,6.89,0,0,0-1.77,1,7.22,7.22,0,0,0-1.07,1.09c-.27.35-.5.66-.67.93a1.41,1.41,0,0,1-.56.52A1.13,1.13,0,0,1,59.43,55ZM69.77,72.74a3.37,3.37,0,0,1-.27-1.24,3.15,3.15,0,0,1,.22-1.19,3.29,3.29,0,0,1,1.73-1.74,3.11,3.11,0,0,1,1.25-.26,3.41,3.41,0,0,1,1.2.23,3.3,3.3,0,0,1,1,.66,3.17,3.17,0,0,1,.72,1,3.08,3.08,0,0,1,.26,1.25,3.37,3.37,0,0,1-.24,1.19,3.17,3.17,0,0,1-.68,1,3.27,3.27,0,0,1-1,.72,3.57,3.57,0,0,1-1.26.27,3,3,0,0,1-2.19-.88A3.24,3.24,0,0,1,69.77,72.74Z" style="fill:#e0e0e0"></path></g></g><g id="freepik--speech-bubble--inject-119"><g id="freepik--speech-bubble--inject-119"><g id="freepik--speech-bubble--inject-119"><path d="M156.93,110.46a18,18,0,0,1-13.42,6.26.68.68,0,0,0-.65.44.7.7,0,0,0,.18.77c5.5,4.79,17.1,5.25,25.49,1.06a39.44,39.44,0,1,0-11.6-8.53Zm-9.28-28.1a38.15,38.15,0,1,1,21.19,35.25.67.67,0,0,0-.63,0c-7.11,3.68-17.13,3.74-22.73.38a19.77,19.77,0,0,0,12.91-7.16.7.7,0,0,0-.07-.89A37.8,37.8,0,0,1,147.65,82.36Z" style="fill:#FF9914"></path><path d="M158.32,110a.7.7,0,0,1,.07.89A19.77,19.77,0,0,1,145.48,118c5.6,3.36,15.62,3.3,22.73-.38a.67.67,0,0,1,.63,0A38,38,0,1,0,158.32,110Z" style="fill:#fff"></path></g><path id="freepik--Like--inject-119" d="M183.51,98.93c.52,1.33-.08,7.22-.09,8.29s5.11,1.47,6.77-2.41a15.61,15.61,0,0,0,.92-10.7h12.48a3.87,3.87,0,0,0,3.76-3.88,4.13,4.13,0,0,0-2-3.61,3.5,3.5,0,0,0,2.54-3.47,3.86,3.86,0,0,0-3-3.75,4.72,4.72,0,0,0,.84-2.94c0-1.34-1.72-3.61-3.47-3.61a7.71,7.71,0,0,0,.57-2.81c0-1.94-1.85-3.88-4.55-3.88H177.4V89.29S183,97.59,183.51,98.93Zm-8.8-9V63h-9.14V90Zm-5.17-24.19a1.59,1.59,0,1,1-.84,2.1A1.6,1.6,0,0,1,169.54,65.77Z" style="fill:#455a64"></path></g></g></svg>